<svg width="88" height="88" viewBox="0 0 88 88" fill="none" xmlns="http://www.w3.org/2000/svg">
<g clip-path="url(#clip0_19_551)">
<path d="M79.2 0H8.8C3.9399 0 0 3.9399 0 8.8V79.2C0 84.0601 3.9399 88 8.8 88H79.2C84.0601 88 88 84.0601 88 79.2V8.8C88 3.9399 84.0601 0 79.2 0Z" fill="#E44D26"/>
<path d="M44 61.1246L56.5356 57.6442L58.2296 38.8562H35.9304L35.376 32.6038H58.784L59.4 26.4746H28.6L30.3248 44.9854H51.546L50.8376 52.9318L44 54.7798L37.1624 52.9318L36.7312 47.819H30.5712L31.4644 57.6442L44 61.1246ZM19.5756 16.2798H68.4244L64.02 66.1758L44 71.7198L23.98 66.1758L19.5756 16.2798Z" fill="white"/>
</g>
<defs>
<clipPath id="clip0_19_551">
<rect width="88" height="88" fill="white"/>
</clipPath>
</defs>
</svg>
