<svg width="1920" height="222" viewBox="0 0 1920 222" fill="none" xmlns="http://www.w3.org/2000/svg">
<path fill-rule="evenodd" clip-rule="evenodd" d="M-76 58.8003L7.16667 46.9648C90.3333 35.1292 256.667 11.9961 423 4.46435C589.333 -3.60535 755.667 4.46435 922 15.7619C1088.33 27.5975 1254.67 43.1989 1421 46.9648C1587.33 50.7306 1753.67 43.1989 1836.83 39.4331L1920 35.1292V221.27H1836.83C1753.67 221.27 1587.33 221.27 1421 221.27C1254.67 221.27 1088.33 221.27 922 221.27C755.667 221.27 589.333 221.27 423 221.27C256.667 221.27 90.3333 221.27 7.16667 221.27H-76V58.8003Z" fill="#2D2D2D"/>
<path fill-rule="evenodd" clip-rule="evenodd" d="M-76 58.8003L7.16667 46.9648C90.3333 35.1292 256.667 11.9961 423 4.46435C589.333 -3.60535 755.667 4.46435 922 15.7619C1088.33 27.5975 1254.67 43.1989 1421 46.9648C1587.33 50.7306 1753.67 43.1989 1836.83 39.4331L1920 35.1292V221.27H1836.83C1753.67 221.27 1587.33 221.27 1421 221.27C1254.67 221.27 1088.33 221.27 922 221.27C755.667 221.27 589.333 221.27 423 221.27C256.667 221.27 90.3333 221.27 7.16667 221.27H-76V58.8003Z" stroke="black"/>
<path fill-rule="evenodd" clip-rule="evenodd" d="M-76 58.8003L7.16667 46.9648C90.3333 35.1292 256.667 11.9961 423 4.46435C589.333 -3.60535 755.667 4.46435 922 15.7619C1088.33 27.5975 1254.67 43.1989 1421 46.9648C1587.33 50.7306 1753.67 43.1989 1836.83 39.4331L1920 35.1292V221.27H1836.83C1753.67 221.27 1587.33 221.27 1421 221.27C1254.67 221.27 1088.33 221.27 922 221.27C755.667 221.27 589.333 221.27 423 221.27C256.667 221.27 90.3333 221.27 7.16667 221.27H-76V58.8003Z" stroke="black" stroke-opacity="0.2"/>
</svg>
