<svg width="88" height="88" viewBox="0 0 88 88" fill="none" xmlns="http://www.w3.org/2000/svg">
<g clip-path="url(#clip0_19_554)">
<path d="M79.2 0H8.8C3.9399 0 0 3.9399 0 8.8V79.2C0 84.0601 3.9399 88 8.8 88H79.2C84.0601 88 88 84.0601 88 79.2V8.8C88 3.9399 84.0601 0 79.2 0Z" fill="#42A5F5"/>
<path d="M24.169 17.6001L22.3275 27.3975H60.8281L59.5814 33.7335H21.1094L19.2396 43.5015H57.74L55.587 54.6775L40.0622 59.9867L26.6054 54.6775L27.5403 49.8667H18.078L15.84 61.6001L38.079 70.4001L63.7176 61.6001L67.1172 43.9121L67.7971 40.3627L72.16 17.6001H24.169Z" fill="white"/>
</g>
<defs>
<clipPath id="clip0_19_554">
<rect width="88" height="88" fill="white"/>
</clipPath>
</defs>
</svg>
