<svg width="17" height="14" viewBox="0 0 17 14" fill="none" xmlns="http://www.w3.org/2000/svg">
<path d="M16.6779 4.79271C16.8074 4.68776 17 4.78594 17 4.95182V11.875C17 12.7721 16.2861 13.5 15.4062 13.5H1.59375C0.713867 13.5 0 12.7721 0 11.875V4.95521C0 4.78594 0.189258 4.69115 0.32207 4.79609C1.06582 5.38516 2.05195 6.13333 5.43867 8.64193C6.13926 9.16328 7.32129 10.2602 8.5 10.2534C9.68535 10.2635 10.8906 9.14297 11.5646 8.64193C14.9514 6.13333 15.9342 5.38177 16.6779 4.79271ZM8.5 9.16667C9.27031 9.18021 10.3793 8.17813 10.9371 7.7651C15.3432 4.50495 15.6785 4.22057 16.6945 3.40807C16.8871 3.25573 17 3.01875 17 2.76823V2.125C17 1.22786 16.2861 0.5 15.4062 0.5H1.59375C0.713867 0.5 0 1.22786 0 2.125V2.76823C0 3.01875 0.112891 3.25234 0.305469 3.40807C1.32148 4.21719 1.65684 4.50495 6.06289 7.7651C6.6207 8.17813 7.72969 9.18021 8.5 9.16667Z" fill="black"/>
</svg>
