<svg width="88" height="88" viewBox="0 0 88 88" fill="none" xmlns="http://www.w3.org/2000/svg">
<g clip-path="url(#clip0_19_571)">
<path d="M79.2 0H8.8C3.9399 0 0 3.9399 0 8.8V79.2C0 84.0601 3.9399 88 8.8 88H79.2C84.0601 88 88 84.0601 88 79.2V8.8C88 3.9399 84.0601 0 79.2 0Z" fill="#1E1E1E"/>
<path d="M44 44.4886C44 42.025 44.9787 39.6624 46.7207 37.9204C48.4627 36.1784 50.8253 35.1997 53.2889 35.1997C55.7525 35.1997 58.1151 36.1784 59.8571 37.9204C61.5991 39.6624 62.5778 42.025 62.5778 44.4886C62.5778 46.9522 61.5991 49.3148 59.8571 51.0568C58.1151 52.7988 55.7525 53.7775 53.2889 53.7775C50.8253 53.7775 48.4627 52.7988 46.7207 51.0568C44.9787 49.3148 44 46.9522 44 44.4886Z" fill="#1ABCFE"/>
<path d="M25.4222 63.0667C25.4222 60.6031 26.4009 58.2405 28.1429 56.4985C29.8849 54.7565 32.2475 53.7778 34.7111 53.7778H44V63.0667C44 65.5303 43.0214 67.8929 41.2794 69.6349C39.5373 71.377 37.1747 72.3556 34.7111 72.3556C32.2475 72.3556 29.8849 71.377 28.1429 69.6349C26.4009 67.8929 25.4222 65.5303 25.4222 63.0667Z" fill="#0ACF83"/>
<path d="M44 16.6221V35.1998H53.2889C55.7525 35.1998 58.1151 34.2212 59.8571 32.4792C61.5991 30.7372 62.5778 28.3746 62.5778 25.911C62.5778 23.4474 61.5991 21.0847 59.8571 19.3427C58.1151 17.6007 55.7525 16.6221 53.2889 16.6221H44Z" fill="#FF7262"/>
<path d="M25.4222 25.911C25.4222 28.3746 26.4009 30.7372 28.1429 32.4792C29.8849 34.2212 32.2475 35.1998 34.7111 35.1998H44V16.6221H34.7111C32.2475 16.6221 29.8849 17.6007 28.1429 19.3427C26.4009 21.0847 25.4222 23.4474 25.4222 25.911Z" fill="#F24E1E"/>
<path d="M25.4222 44.4886C25.4222 46.9522 26.4009 49.3148 28.1429 51.0568C29.8849 52.7988 32.2475 53.7775 34.7111 53.7775H44V35.1997H34.7111C32.2475 35.1997 29.8849 36.1784 28.1429 37.9204C26.4009 39.6624 25.4222 42.025 25.4222 44.4886Z" fill="#A259FF"/>
</g>
<defs>
<clipPath id="clip0_19_571">
<rect width="88" height="88" fill="white"/>
</clipPath>
</defs>
</svg>
