<svg width="200" height="200" viewBox="0 0 200 200" fill="none" xmlns="http://www.w3.org/2000/svg">
<g filter="url(#filter0_d_309_25)">
<path d="M4 28C4 12.536 16.536 0 32 0H168C183.464 0 196 12.536 196 28V164C196 179.464 183.464 192 168 192H32C16.536 192 4 179.464 4 164V28Z" fill="#5B5C5C"/>
<path d="M4.5 28C4.5 12.8122 16.8122 0.5 32 0.5H168C183.188 0.5 195.5 12.8122 195.5 28V164C195.5 179.188 183.188 191.5 168 191.5H32C16.8122 191.5 4.5 179.188 4.5 164V28Z" stroke="black"/>
</g>
<g filter="url(#filter1_d_309_25)">
<path d="M90.4786 105.814L69.4396 107.662L65.9815 128.268L50.0429 129.668L68.0306 37.5005L80.654 36.3916L114.562 124L97.7312 125.479L90.4786 105.814ZM71.7175 94.099L86.5085 92.7997L79.5824 72.4637L76.3102 58.617L75.8002 58.6618L74.8758 73.0057L71.7175 94.099Z" fill="white"/>
<path d="M90.4786 105.814L91.4168 105.468L91.1524 104.751L90.3911 104.818L90.4786 105.814ZM69.4396 107.662L69.3521 106.666L68.5815 106.734L68.4534 107.497L69.4396 107.662ZM65.9815 128.268L66.069 129.264L66.8397 129.196L66.9677 128.433L65.9815 128.268ZM50.0429 129.668L49.0614 129.477L48.8069 130.781L50.1304 130.664L50.0429 129.668ZM68.0306 37.5005L67.9431 36.5043L67.1933 36.5702L67.0491 37.3089L68.0306 37.5005ZM80.654 36.3916L81.5866 36.0306L81.3153 35.3297L80.5665 35.3954L80.654 36.3916ZM114.562 124L114.65 124.997L115.975 124.88L115.495 123.64L114.562 124ZM97.7312 125.479L96.793 125.825L97.0574 126.542L97.8187 126.475L97.7312 125.479ZM71.7175 94.099L70.7285 93.9509L70.5406 95.2062L71.805 95.0951L71.7175 94.099ZM86.5085 92.7997L86.596 93.7958L87.8662 93.6843L87.4551 92.4773L86.5085 92.7997ZM79.5824 72.4637L78.6092 72.6937L78.6203 72.7406L78.6358 72.7861L79.5824 72.4637ZM76.3102 58.617L77.2834 58.387L77.0845 57.5451L76.2227 57.6208L76.3102 58.617ZM75.8002 58.6618L75.7127 57.6656L74.8574 57.7407L74.8022 58.5975L75.8002 58.6618ZM74.8758 73.0057L75.8648 73.1538L75.871 73.1121L75.8737 73.07L74.8758 73.0057ZM90.3911 104.818L69.3521 106.666L69.5271 108.658L90.5661 106.81L90.3911 104.818ZM68.4534 107.497L64.9953 128.102L66.9677 128.433L70.4258 107.828L68.4534 107.497ZM65.894 127.272L49.9554 128.672L50.1304 130.664L66.069 129.264L65.894 127.272ZM51.0244 129.86L69.0121 37.692L67.0491 37.3089L49.0614 129.477L51.0244 129.86ZM68.1181 38.4966L80.7415 37.3878L80.5665 35.3954L67.9431 36.5043L68.1181 38.4966ZM79.7214 36.7525L113.63 124.361L115.495 123.64L81.5866 36.0306L79.7214 36.7525ZM114.475 123.004L97.6437 124.483L97.8187 126.475L114.65 124.997L114.475 123.004ZM98.6695 125.133L91.4168 105.468L89.5404 106.16L96.793 125.825L98.6695 125.133ZM71.805 95.0951L86.596 93.7958L86.421 91.8035L71.63 93.1028L71.805 95.0951ZM87.4551 92.4773L80.529 72.1413L78.6358 72.7861L85.5619 93.1221L87.4551 92.4773ZM80.5556 72.2338L77.2834 58.387L75.337 58.8469L78.6092 72.6937L80.5556 72.2338ZM76.2227 57.6208L75.7127 57.6656L75.8877 59.6579L76.3977 59.6131L76.2227 57.6208ZM74.8022 58.5975L73.8779 72.9414L75.8737 73.07L76.7981 58.7261L74.8022 58.5975ZM73.8868 72.8576L70.7285 93.9509L72.7065 94.247L75.8648 73.1538L73.8868 72.8576Z" fill="black"/>
</g>
<g filter="url(#filter2_d_309_25)">
<path d="M144.678 69.4099L123.436 69.8974L125.151 144.63L109.027 145L107.312 70.2674L86.0699 70.7549L85.7292 55.9108L144.338 54.5658L144.678 69.4099Z" fill="#BDFF00"/>
<path d="M144.678 69.4099L144.701 70.4096L145.701 70.3867L145.678 69.3869L144.678 69.4099ZM123.436 69.8974L123.413 68.8976L122.413 68.9206L122.436 69.9203L123.436 69.8974ZM125.151 144.63L125.174 145.629L126.174 145.606L126.151 144.607L125.151 144.63ZM109.027 145L108.028 145.023L108.051 146.022L109.05 145.999L109.027 145ZM107.312 70.2674L108.312 70.2444L108.289 69.2447L107.289 69.2676L107.312 70.2674ZM86.0699 70.7549L85.0702 70.7778L85.0931 71.7776L86.0928 71.7546L86.0699 70.7549ZM85.7292 55.9108L85.7063 54.911L84.7066 54.934L84.7295 55.9337L85.7292 55.9108ZM144.338 54.5658L145.338 54.5428L145.315 53.5431L144.315 53.566L144.338 54.5658ZM144.656 68.4101L123.413 68.8976L123.459 70.8971L144.701 70.4096L144.656 68.4101ZM122.436 69.9203L124.151 144.653L126.151 144.607L124.436 69.8744L122.436 69.9203ZM125.128 143.63L109.004 144L109.05 145.999L125.174 145.629L125.128 143.63ZM110.027 144.977L108.312 70.2444L106.313 70.2903L108.028 145.023L110.027 144.977ZM107.289 69.2676L86.047 69.7551L86.0928 71.7546L107.335 71.2671L107.289 69.2676ZM87.0696 70.7319L86.729 55.8878L84.7295 55.9337L85.0702 70.7778L87.0696 70.7319ZM85.7522 56.9105L144.361 55.5655L144.315 53.566L85.7063 54.911L85.7522 56.9105ZM143.338 54.5887L143.679 69.4328L145.678 69.3869L145.338 54.5428L143.338 54.5887Z" fill="black"/>
</g>
<defs>
<filter id="filter0_d_309_25" x="0" y="0" width="200" height="200" filterUnits="userSpaceOnUse" color-interpolation-filters="sRGB">
<feFlood flood-opacity="0" result="BackgroundImageFix"/>
<feColorMatrix in="SourceAlpha" type="matrix" values="0 0 0 0 0 0 0 0 0 0 0 0 0 0 0 0 0 0 127 0" result="hardAlpha"/>
<feOffset dy="4"/>
<feGaussianBlur stdDeviation="2"/>
<feComposite in2="hardAlpha" operator="out"/>
<feColorMatrix type="matrix" values="0 0 0 0 0 0 0 0 0 0 0 0 0 0 0 0 0 0 0.25 0"/>
<feBlend mode="normal" in2="BackgroundImageFix" result="effect1_dropShadow_309_25"/>
<feBlend mode="normal" in="SourceGraphic" in2="effect1_dropShadow_309_25" result="shape"/>
</filter>
<filter id="filter1_d_309_25" x="35.8385" y="34.1066" width="85.0316" height="108.177" filterUnits="userSpaceOnUse" color-interpolation-filters="sRGB">
<feFlood flood-opacity="0" result="BackgroundImageFix"/>
<feColorMatrix in="SourceAlpha" type="matrix" values="0 0 0 0 0 0 0 0 0 0 0 0 0 0 0 0 0 0 127 0" result="hardAlpha"/>
<feOffset dy="6.30769"/>
<feGaussianBlur stdDeviation="3.15385"/>
<feComposite in2="hardAlpha" operator="out"/>
<feColorMatrix type="matrix" values="0 0 0 0 0 0 0 0 0 0 0 0 0 0 0 0 0 0 0.25 0"/>
<feBlend mode="normal" in2="BackgroundImageFix" result="effect1_dropShadow_309_25"/>
<feBlend mode="normal" in="SourceGraphic" in2="effect1_dropShadow_309_25" result="shape"/>
</filter>
<filter id="filter2_d_309_25" x="79.4216" y="54.5658" width="73.2797" height="103.537" filterUnits="userSpaceOnUse" color-interpolation-filters="sRGB">
<feFlood flood-opacity="0" result="BackgroundImageFix"/>
<feColorMatrix in="SourceAlpha" type="matrix" values="0 0 0 0 0 0 0 0 0 0 0 0 0 0 0 0 0 0 127 0" result="hardAlpha"/>
<feOffset dy="6.30769"/>
<feGaussianBlur stdDeviation="3.15385"/>
<feComposite in2="hardAlpha" operator="out"/>
<feColorMatrix type="matrix" values="0 0 0 0 0 0 0 0 0 0 0 0 0 0 0 0 0 0 0.25 0"/>
<feBlend mode="normal" in2="BackgroundImageFix" result="effect1_dropShadow_309_25"/>
<feBlend mode="normal" in="SourceGraphic" in2="effect1_dropShadow_309_25" result="shape"/>
</filter>
</defs>
</svg>
