<svg width="32" height="33" viewBox="0 0 32 33" fill="none" xmlns="http://www.w3.org/2000/svg">
<path fill-rule="evenodd" clip-rule="evenodd" d="M15.9983 0.172607C7.16326 0.172607 0 7.51707 0 16.5784C0 23.8259 4.58398 29.9744 10.9423 32.1445C11.7426 32.2947 12.0342 31.7881 12.0342 31.3526C12.0342 30.9642 12.0209 29.9321 12.0129 28.5634C7.56207 29.5546 6.62331 26.3639 6.62331 26.3639C5.8956 24.4696 4.84631 23.9652 4.84631 23.9652C3.39355 22.9467 4.95616 22.9671 4.95616 22.9671C6.56205 23.0839 7.40695 24.658 7.40695 24.658C8.83441 27.1647 11.152 26.4404 12.0635 26.0212C12.2093 24.9611 12.6214 24.2382 13.0795 23.8279C9.52683 23.4143 5.79107 22.006 5.79107 15.7203C5.79107 13.9297 6.41491 12.4648 7.43824 11.318C7.27379 10.9029 6.72451 9.23526 7.5947 6.97643C7.5947 6.97643 8.93827 6.53544 11.9949 8.65844C13.2712 8.29459 14.6401 8.11233 16.0003 8.10619C17.3592 8.11233 18.7281 8.29459 20.0064 8.65844C23.0611 6.53544 24.402 6.97643 24.402 6.97643C25.2748 9.23526 24.7255 10.9029 24.5611 11.318C25.5864 12.4648 26.2063 13.9297 26.2063 15.7203C26.2063 22.0224 22.4645 23.4088 18.8999 23.815C19.4751 24.3215 19.9864 25.3222 19.9864 26.8534C19.9864 29.046 19.9671 30.8154 19.9671 31.3526C19.9671 31.7922 20.2547 32.3028 21.067 32.1424C27.42 29.9682 32 23.8238 32 16.5784C32 7.51707 24.8361 0.172607 15.9983 0.172607" fill="#010101"/>
</svg>
