<svg width="88" height="88" viewBox="0 0 88 88" fill="none" xmlns="http://www.w3.org/2000/svg">
<g clip-path="url(#clip0_19_557)">
<path d="M79.2 0H8.8C3.9399 0 0 3.9399 0 8.8V79.2C0 84.0601 3.9399 88 8.8 88H79.2C84.0601 88 88 84.0601 88 79.2V8.8C88 3.9399 84.0601 0 79.2 0Z" fill="#FDE635"/>
<path d="M12.9659 11.644H75.3808V73.596H12.9659V11.644Z" fill="#FDE635"/>
<path d="M24.5766 64.7153L30.1787 61.3255C31.2593 63.2421 32.2432 64.8631 34.6016 64.8631C36.8614 64.8631 38.287 63.9831 38.287 60.5388V37.1484H45.1669V60.6356C45.1669 67.7601 40.9904 71.0037 34.8973 71.0037C32.7432 71.1203 30.6043 70.5817 28.7623 69.4588C26.9204 68.3361 25.4617 66.6815 24.5784 64.7135L24.5766 64.7153ZM48.9051 63.9761L54.5072 60.7324C55.1301 61.9961 56.0968 63.0582 57.2964 63.7971C58.496 64.5359 59.8798 64.9212 61.2885 64.9089C64.1397 64.9089 65.956 63.4833 65.956 61.5173C65.956 59.1589 64.0886 58.3229 60.9435 56.9413L59.2293 56.2127C54.2661 54.1007 50.9731 51.4466 50.9731 45.8445C50.9731 40.6842 54.9049 36.7541 61.0473 36.7541C63.0376 36.6098 65.0264 37.0549 66.7652 38.0337C68.5043 39.0124 69.9165 40.4815 70.8259 42.2577L65.4685 45.6985C65.1168 44.8167 64.5056 44.0627 63.7157 43.5363C62.9258 43.0097 61.9948 42.7357 61.0456 42.7505C60.6318 42.7086 60.2138 42.7535 59.8183 42.8821C59.4229 43.0109 59.0587 43.2207 58.7488 43.4981C58.439 43.7755 58.1903 44.1145 58.0187 44.4932C57.8473 44.8721 57.7567 45.2826 57.7526 45.6985C57.7526 47.7629 59.0304 48.5972 61.9766 49.8749L63.6961 50.6124C69.5446 53.1186 72.8358 55.6741 72.8358 61.4223C72.8358 67.614 67.9712 71.0055 61.4363 71.0055C55.0475 71.0055 50.9203 67.9589 48.9051 63.9778" fill="black"/>
</g>
<defs>
<clipPath id="clip0_19_557">
<rect width="88" height="88" fill="white"/>
</clipPath>
</defs>
</svg>
