<svg width="31" height="31" viewBox="0 0 31 31" fill="none" xmlns="http://www.w3.org/2000/svg">
<g clip-path="url(#clip0_19_586)">
<path d="M28.1946 0.763672H3.62207C2.12333 0.763672 0.908325 1.97867 0.908325 3.47742V28.0498C0.908325 29.5487 2.12333 30.7637 3.62207 30.7637H28.1945C29.6933 30.7637 30.9083 29.5487 30.9083 28.0498V3.47742C30.9083 1.97867 29.6933 0.763672 28.1946 0.763672ZM10.1916 26.6677C10.1916 27.1038 9.83804 27.4574 9.40186 27.4574H6.04013C5.60395 27.4574 5.25039 27.1038 5.25039 26.6677V12.5754C5.25039 12.1392 5.60395 11.7857 6.04013 11.7857H9.40186C9.83804 11.7857 10.1916 12.1392 10.1916 12.5754V26.6677ZM7.721 10.4573C5.9572 10.4573 4.52733 9.02742 4.52733 7.26362C4.52733 5.49982 5.9572 4.06995 7.721 4.06995C9.48479 4.06995 10.9147 5.49982 10.9147 7.26362C10.9147 9.02742 9.48487 10.4573 7.721 10.4573ZM27.7599 26.7313C27.7599 27.1323 27.4348 27.4574 27.0338 27.4574H23.4264C23.0254 27.4574 22.7003 27.1323 22.7003 26.7313V20.1212C22.7003 19.1351 22.9895 15.8002 20.1233 15.8002C17.9001 15.8002 17.4492 18.0829 17.3586 19.1073V26.7313C17.3586 27.1323 17.0336 27.4574 16.6325 27.4574H13.1435C12.7425 27.4574 12.4174 27.1323 12.4174 26.7313V12.5118C12.4174 12.1108 12.7425 11.7857 13.1435 11.7857H16.6325C17.0335 11.7857 17.3586 12.1108 17.3586 12.5118V13.7413C18.183 12.5041 19.4081 11.5492 22.0166 11.5492C27.793 11.5492 27.7599 16.9458 27.7599 19.9109V26.7313Z" fill="white"/>
</g>
<defs>
<clipPath id="clip0_19_586">
<rect width="30" height="30" fill="white" transform="translate(0.908325 0.763672)"/>
</clipPath>
</defs>
</svg>
