<svg width="360" height="200" viewBox="0 0 360 200" fill="none" xmlns="http://www.w3.org/2000/svg">
<path d="M212.903 75.6443C212.903 78.3126 210.742 80.4644 207.977 80.4644H205.902V84.8541H202.704V70.8242H207.977C210.742 70.8242 212.903 72.976 212.903 75.6443ZM209.705 75.6443C209.705 74.6114 209.014 73.8368 207.977 73.8368H205.902V77.4518H207.977C208.927 77.4518 209.705 76.6772 209.705 75.6443Z" fill="#1D1C1A"/>
<path d="M215.754 77.7965C215.754 73.665 219.038 70.5664 223.014 70.5664C227.076 70.5664 230.274 73.7511 230.274 77.7965C230.274 81.928 226.99 85.0266 223.014 85.0266C219.038 85.1127 215.754 81.928 215.754 77.7965ZM227.163 77.7965C227.163 75.3004 225.348 73.665 223.101 73.665C220.853 73.665 219.038 75.3004 219.038 77.7965C219.038 80.2926 220.853 81.928 223.101 81.928C225.348 81.928 227.163 80.2926 227.163 77.7965Z" fill="#1D1C1A"/>
<path d="M242.287 81.7555V84.8541H234.076V70.8242H237.274V81.6694H242.287V81.7555Z" fill="#1D1C1A"/>
<path d="M244.363 77.7965C244.363 73.665 247.648 70.5664 251.623 70.5664C255.599 70.5664 258.883 73.7511 258.883 77.7965C258.883 81.928 255.599 85.0267 251.623 85.0267C247.648 85.0267 244.363 81.928 244.363 77.7965ZM255.686 77.7965C255.686 75.3004 253.871 73.665 251.623 73.665C249.376 73.665 247.561 75.3004 247.561 77.7965C247.561 80.2926 249.376 81.928 251.623 81.928C253.871 81.928 255.686 80.2926 255.686 77.7965Z" fill="#1D1C1A"/>
<path d="M271.329 73.9228H267.699V84.768H264.501V73.9228H260.871V70.8242H271.242V73.9228H271.329Z" fill="#1D1C1A"/>
<path d="M273.576 81.6698L276.342 80.0344C276.861 81.1534 277.725 81.928 279.281 81.928C280.836 81.928 281.182 81.3255 281.182 80.8091C281.182 79.9483 280.404 79.6041 278.243 79.0015C276.169 78.399 274.095 77.4522 274.095 74.784C274.095 72.1157 276.342 70.5664 278.762 70.5664C281.096 70.5664 282.824 71.6854 283.861 73.7511L281.182 75.3004C280.663 74.2675 280.058 73.665 278.762 73.665C277.725 73.665 277.293 74.1815 277.293 74.6979C277.293 75.3004 277.638 75.7308 279.799 76.4194C281.96 77.0219 284.294 77.7965 284.294 80.723C284.294 83.3913 282.133 85.0267 279.108 85.0267C276.256 85.1127 274.354 83.6495 273.576 81.6698Z" fill="#1D1C1A"/>
<path d="M295.616 84.768L291.121 78.3126V84.768H287.924V70.8242H291.121V76.8493L295.443 70.8242H299.073L294.319 77.624L299.246 84.768H295.616V84.768Z" fill="#1D1C1A"/>
<path d="M201.926 103.877L204.691 102.241C205.21 103.36 206.074 104.135 207.63 104.135C209.186 104.135 209.531 103.533 209.531 103.016C209.531 102.155 208.753 101.811 206.593 101.209C204.518 100.606 202.444 99.6593 202.444 96.991C202.444 94.3227 204.691 92.7734 207.111 92.7734C209.445 92.7734 211.174 93.8924 212.211 95.9581L209.531 97.5074C209.013 96.4746 208.408 95.8721 207.111 95.8721C206.074 95.8721 205.642 96.3885 205.642 96.9049C205.642 97.5074 205.988 97.9378 208.148 98.6264C210.309 99.2289 212.643 100.004 212.643 102.93C212.643 105.598 210.482 107.234 207.457 107.234C204.605 107.32 202.703 105.943 201.926 103.877Z" fill="#1D1C1A"/>
<path d="M225.263 96.2158H221.632V107.061H218.435V96.2158H214.804V93.1172H225.176V96.2158H225.263Z" fill="#1D1C1A"/>
<path d="M235.893 104.909H230.707L230.016 107.061H226.472L231.226 93.1172H235.288L240.042 107.061H236.498L235.893 104.909ZM234.943 101.897L233.3 96.8183L231.658 101.897H234.943Z" fill="#1D1C1A"/>
<path d="M251.71 96.2158H248.08V107.061H244.882V96.2158H241.252V93.1172H251.624V96.2158H251.71Z" fill="#1D1C1A"/>
<path d="M263.896 103.962V107.061H255.08V93.1172H263.809V96.2158H258.278V98.5398H263.291V101.552H258.278V104.048H263.896V103.962Z" fill="#1D1C1A"/>
<path d="M202.531 124.792V115.324H205.729V124.448C205.729 125.481 206.247 126.428 207.889 126.428C209.531 126.428 210.05 125.567 210.05 124.448V115.41H213.248V124.878C213.248 127.891 210.914 129.698 207.889 129.698C204.864 129.612 202.531 127.805 202.531 124.792Z" fill="#1D1C1A"/>
<path d="M228.631 115.41V129.354H226.211L220.852 121.78V129.354H217.654V115.41H220.074L225.433 122.985V115.41H228.631Z" fill="#1D1C1A"/>
<path d="M236.238 115.41V129.354H233.04V115.41H236.238Z" fill="#1D1C1A"/>
<path d="M239.437 115.41H242.981L246.092 125.653L249.204 115.41H252.747L248.167 129.354H244.104L239.437 115.41Z" fill="#1D1C1A"/>
<path d="M264.675 126.255V129.354H255.859V115.41H264.588V118.423H259.057V120.747H264.07V123.759H259.057V126.255H264.675V126.255Z" fill="#1D1C1A"/>
<path d="M273.23 124.706H271.674V129.268H268.476V115.41H274.094C276.774 115.41 278.934 117.562 278.934 120.23C278.934 121.952 277.897 123.501 276.342 124.276L279.28 129.354H275.823L273.23 124.706ZM271.674 121.952H274.094C274.959 121.952 275.736 121.177 275.736 120.144C275.736 119.111 275.045 118.337 274.094 118.337H271.674V121.952Z" fill="#1D1C1A"/>
<path d="M281.875 126.17L284.64 124.534C285.159 125.653 286.023 126.428 287.579 126.428C289.135 126.428 289.48 125.826 289.48 125.309C289.48 124.448 288.703 124.104 286.542 123.502C284.467 122.899 282.393 121.952 282.393 119.284C282.393 116.616 284.64 115.066 287.06 115.066C289.394 115.066 291.123 116.185 292.16 118.251L289.48 119.8C288.962 118.768 288.357 118.165 287.06 118.165C286.023 118.165 285.591 118.681 285.591 119.198C285.591 119.8 285.937 120.231 288.098 120.919C290.258 121.522 292.592 122.297 292.592 125.223C292.592 127.891 290.431 129.527 287.406 129.527C284.554 129.613 282.652 128.236 281.875 126.17Z" fill="#1D1C1A"/>
<path d="M299.419 115.41V129.354H296.221V115.41H299.419Z" fill="#1D1C1A"/>
<path d="M313.161 118.423H309.531V129.268H306.333V118.423H302.703V115.324H313.075V118.423H313.161Z" fill="#1D1C1A"/>
<path d="M323.275 123.931V129.268H320.077V123.931L315.41 115.324H319.04L321.719 120.661L324.398 115.324H328.028L323.275 123.931Z" fill="#1D1C1A"/>
<line x1="179.94" y1="22.6416" x2="179.94" y2="177.359" stroke="#1D1C1A" stroke-width="1.5"/>
<path d="M136.905 119.986L136.198 120.381L93.0727 144.569L49.2688 120.607L49.2123 73.668C50.6545 74.5137 53.7651 75.4722 59.6189 73.6116L61.6549 72.9632C68.3004 70.8488 74.0128 69.0164 79.4423 69.0164C85.2112 69.0164 92.5071 75.0211 92.5919 75.0775L92.9878 75.3876L93.5534 74.8802C93.6382 74.8238 100.934 68.8191 106.703 68.8191C112.133 68.8191 117.845 70.6515 124.49 72.7658L126.526 73.4142C132.408 75.2749 135.547 74.3164 136.961 73.4424L136.905 119.986ZM77.8021 57.6553L78.198 57.4297C81.337 55.8792 86.9079 53.5675 92.1112 53.5675C96.7772 53.5675 101.952 55.4282 105.374 56.9223C105.826 57.176 106.307 57.4297 106.816 57.7117L136.82 72.0047C136.198 72.5403 133.54 74.3446 126.838 72.2302L124.801 71.5818C118.071 69.4393 112.246 67.5786 106.646 67.5786C100.878 67.5786 94.0907 72.8222 92.903 73.7807C91.2628 72.4839 84.8435 67.7478 79.3857 67.7478C73.7865 67.7478 67.9611 69.6084 61.2307 71.751L59.1947 72.3994C54.4438 74.0345 51.5877 73.4142 49.9475 72.5403L77.8021 57.6553ZM68.4418 43.7287C69.8558 42.5447 72.3443 40.6559 74.4369 39.7538L79.7534 49.9308L80.1493 49.7335C80.8279 49.4234 81.7611 49.0287 82.4681 48.7186L84.1366 48.0984L83.8538 47.3372C83.3447 45.8713 81.3652 39.7819 80.4038 36.7373C82.6378 35.9479 85.1829 35.2995 87.9259 34.933L87.8694 47.4782L95.7309 47.7319L96.4096 34.9048C99.4919 35.2713 102.235 36.0325 104.667 36.9628L100.114 48.183L100.567 48.3521C101.754 48.8314 103.677 49.6207 104.045 49.8463L104.497 50.1282L104.724 49.6489C104.978 49.1133 108.456 42.3756 109.955 39.5C112.557 41.0506 114.48 42.6857 115.583 43.7569C114.847 44.6027 113.631 45.9277 112.274 47.45L104.921 55.5691C104.921 55.5691 104.469 55.3436 103.366 54.9207C100.199 53.6521 96.1268 52.4681 92.1112 52.4681C87.3603 52.4681 82.6943 54.075 79.4706 55.5409L78.7353 54.7234L73.1927 48.8596L68.4418 43.7287ZM71.1849 30.3942C73.1361 29.1538 80.0927 24.474 92.1112 24.474C104.243 24.474 111.341 29.0692 113.151 30.4506L111.171 34.7357L111.256 34.5665L109.135 39.1617C107.834 41.699 104.95 47.2245 104.13 48.8596C103.394 48.5213 102.094 47.9856 101.387 47.7037L105.515 37.5266L105.544 37.3293L106.703 34.8485C103.564 33.5517 99.8596 32.4804 95.5895 32.1139L95.5612 33.4671H95.5329L94.8259 46.717L88.8026 46.5197L88.8874 34.8203V34.6229L88.9439 33.2697L89.0005 32.1421C85.098 32.4804 81.5349 33.4107 78.5656 34.5102L79.0181 35.7506L79.612 37.3293C80.6017 40.3458 82.3833 45.8431 82.9206 47.5064C82.1853 47.7883 80.8562 48.3803 80.1775 48.6904L75.1156 38.9644L71.1849 30.3942ZM145.615 67.2403L112.274 49.7335C113.829 48.0138 115.809 45.8431 116.657 44.8846L118.608 42.9394C118.41 42.7139 116.092 40.0921 111.821 37.4703L115.385 29.774C115.385 29.774 107.127 22.6416 92.1112 22.6416C77.1517 22.6416 69.8275 29.0974 69.5447 29.323L68.9791 29.7458L72.4574 37.3575C68.0742 39.9511 65.614 42.5447 65.416 42.7702L66.7734 44.1516L71.807 49.6207L40.3893 67.2121V117.393C40.7569 114.799 41.6053 115.504 43.0758 120.466L42.595 127.26C43.2172 123.031 44.0372 123.51 47.0631 129.741L53.85 133.546C55.8861 132.616 58.4594 134.561 61.2025 137.662L66.3775 140.566C63.3517 135.463 71.1849 140.002 79.3857 147.839L92.4222 155.141L93.4403 155.677L106.986 147.924C108.343 146.035 110.351 143.864 112.585 142.399C116.318 139.946 120.164 138.959 119.485 140.735L139.563 129.233C141.656 125.145 143.07 123.651 142.985 127.288L142.249 122.777L142.73 116.096C143.974 115.166 145.134 114.404 145.728 115.307L145.615 67.2403Z" fill="#1D1C1A"/>
<path d="M116.604 94.3505L117.902 91.1773C117.93 91.1216 117.93 91.066 117.959 91.0381C117.987 90.9824 117.987 90.9546 118.043 90.9268C118.072 90.8989 118.1 90.8989 118.156 90.8989H119.821C119.991 90.8989 120.075 90.9546 120.075 91.0938C120.075 91.1495 120.047 91.2051 119.991 91.2051C119.934 91.233 119.85 91.233 119.709 91.233C119.567 91.233 119.455 91.2886 119.426 91.3721C119.37 91.4556 119.37 91.567 119.37 91.734V91.9567L119.455 95.269C119.483 95.5752 119.511 95.7979 119.539 95.8814C119.596 95.9927 119.709 96.0484 119.878 96.0762C119.963 96.0762 120.047 96.1041 120.104 96.1319C120.16 96.1597 120.188 96.1876 120.188 96.2711C120.188 96.3546 120.16 96.4103 120.104 96.4103C120.047 96.4381 119.963 96.4381 119.878 96.4381C119.737 96.4381 119.511 96.4381 119.229 96.4103C118.946 96.4103 118.721 96.3824 118.58 96.3824C118.467 96.3824 118.269 96.3824 118.015 96.4103C117.761 96.4381 117.592 96.4381 117.451 96.4381C117.281 96.4381 117.197 96.3824 117.197 96.2711C117.197 96.2154 117.225 96.1876 117.253 96.1598C117.281 96.1319 117.31 96.1041 117.338 96.0762C117.394 96.0484 117.422 96.0484 117.479 96.0484C117.535 96.0484 117.564 96.0484 117.62 96.0484C117.789 96.0206 117.902 95.9649 117.93 95.8814C117.959 95.7979 117.987 95.6309 117.987 95.436L117.93 92.1237L116.406 95.9092C116.35 96.1041 116.293 96.2154 116.265 96.2711C116.237 96.3268 116.152 96.3546 116.039 96.3546C115.955 96.3546 115.898 96.3268 115.87 96.2989C115.842 96.2711 115.814 96.1876 115.757 96.0762L114.149 92.1793L114.036 95.2412C114.036 95.4082 114.036 95.5752 114.064 95.6587C114.064 95.7701 114.12 95.8536 114.177 95.9371C114.261 95.9927 114.346 96.0484 114.515 96.0484C114.798 96.0484 114.939 96.1041 114.939 96.2433C114.939 96.3546 114.854 96.4381 114.657 96.4381C114.572 96.4381 114.459 96.4381 114.261 96.4381C114.092 96.4103 113.979 96.4103 113.866 96.4103C113.782 96.4103 113.64 96.4103 113.471 96.4381C113.302 96.4381 113.161 96.4381 113.076 96.4381C112.935 96.4381 112.85 96.3824 112.85 96.2711C112.85 96.1876 112.878 96.1319 112.963 96.1319C113.02 96.1041 113.104 96.0762 113.217 96.0762C113.33 96.0484 113.415 96.0206 113.443 95.9649C113.499 95.9092 113.528 95.8257 113.528 95.7701C113.528 95.7144 113.556 95.5752 113.556 95.4082L113.725 91.8732V91.5948C113.725 91.4556 113.697 91.4 113.669 91.3443C113.612 91.2886 113.528 91.2608 113.358 91.2608C113.217 91.2608 113.132 91.233 113.076 91.233C113.02 91.2051 112.991 91.1773 112.991 91.1216C112.991 91.0103 113.104 90.9268 113.33 90.9268H114.939C114.995 90.9268 115.023 90.9268 115.052 90.9546C115.08 90.9546 115.08 90.9824 115.108 91.0103C115.136 91.0381 115.136 91.066 115.165 91.0938C115.165 91.1216 115.193 91.1773 115.193 91.2051L116.604 94.3505ZM111.298 92.0958V95.2412C111.298 95.4639 111.326 95.6031 111.326 95.7144C111.354 95.8257 111.383 95.8814 111.467 95.9371C111.524 95.9927 111.637 96.0484 111.806 96.0762C111.975 96.1041 112.088 96.1876 112.088 96.2711C112.088 96.3824 112.004 96.4381 111.862 96.4381C111.721 96.4381 111.496 96.4381 111.213 96.4103C110.931 96.4103 110.705 96.3824 110.564 96.3824C110.423 96.3824 110.225 96.3824 109.943 96.4103C109.661 96.4381 109.463 96.4381 109.322 96.4381C109.181 96.4381 109.125 96.3824 109.125 96.2711C109.125 96.1597 109.209 96.0762 109.351 96.0762C109.492 96.0484 109.576 96.0206 109.661 95.9927C109.717 95.9649 109.774 95.9092 109.802 95.8536C109.83 95.7979 109.859 95.7144 109.859 95.6309C109.859 95.5474 109.887 95.4082 109.887 95.2412V92.0958V91.8732C109.887 91.6505 109.859 91.5113 109.802 91.4278C109.746 91.3443 109.605 91.2608 109.379 91.233C109.294 91.2051 109.209 91.2051 109.181 91.1773C109.125 91.1495 109.097 91.1216 109.097 91.0381C109.097 90.9268 109.181 90.8711 109.294 90.8711C109.463 90.8711 109.689 90.8711 109.971 90.8989C110.254 90.8989 110.479 90.9268 110.621 90.9268C110.762 90.9268 110.959 90.9268 111.241 90.8989C111.496 90.8711 111.721 90.8711 111.862 90.8711C112.004 90.8711 112.088 90.9268 112.088 91.0381C112.088 91.1216 112.004 91.1773 111.834 91.2051C111.665 91.233 111.552 91.2608 111.467 91.3165C111.383 91.3721 111.326 91.4278 111.326 91.5113C111.298 91.5948 111.298 91.7062 111.298 91.8732V92.0958ZM108.052 95.1855L108.024 95.5474C108.024 95.7144 107.996 95.8257 107.968 95.9092C107.939 95.9927 107.855 96.0484 107.742 96.1319C107.29 96.4103 106.754 96.5494 106.077 96.5494C105.653 96.5494 105.258 96.4938 104.835 96.3824C104.44 96.2711 104.073 96.1319 103.79 95.8814C103.452 95.6031 103.198 95.2969 103 94.9072C102.803 94.5175 102.69 94.1 102.69 93.6824C102.69 93.2371 102.803 92.8474 103 92.4577C103.198 92.068 103.48 91.7618 103.819 91.4835C104.129 91.2608 104.524 91.066 104.948 90.9268C105.371 90.7876 105.823 90.7319 106.246 90.7319C106.698 90.7319 107.121 90.7876 107.544 90.9268C107.657 90.9546 107.714 91.0103 107.742 91.0381C107.77 91.066 107.798 91.1495 107.826 91.2886L107.911 91.734C107.939 91.8453 107.939 91.9288 107.939 91.9845C107.939 92.0958 107.883 92.1515 107.77 92.1515C107.685 92.1515 107.629 92.0958 107.544 91.9845C107.46 91.8732 107.375 91.7618 107.262 91.5948C107.149 91.4556 107.008 91.3443 106.839 91.233C106.669 91.1216 106.443 91.0938 106.189 91.0938C105.907 91.0938 105.625 91.1773 105.399 91.3165C105.145 91.4556 104.948 91.6505 104.778 91.901C104.468 92.3464 104.299 92.9309 104.299 93.6268C104.299 94.2948 104.44 94.8515 104.75 95.3247C104.919 95.5752 105.117 95.7979 105.371 95.9649C105.625 96.1319 105.907 96.1876 106.218 96.1876C106.528 96.1876 106.839 96.0762 107.121 95.8536C107.29 95.7144 107.488 95.436 107.685 95.0464C107.742 94.9072 107.798 94.8515 107.883 94.8515C108.024 94.8515 108.08 94.9628 108.052 95.1855ZM101.109 91.3721V91.9845C101.109 92.2072 101.053 92.3185 100.94 92.3185C100.827 92.3185 100.742 92.235 100.714 92.068C100.629 91.7618 100.488 91.5391 100.347 91.3721C100.178 91.2051 99.9803 91.1216 99.7263 91.1216C99.557 91.1216 99.4158 91.1495 99.2465 91.233C99.1054 91.2886 98.9643 91.3721 98.8796 91.5113C98.7949 91.6227 98.7385 91.7897 98.7385 91.9288C98.7385 92.1237 98.8232 92.2907 98.9643 92.402C99.1054 92.5134 99.303 92.5969 99.5287 92.6804L99.9803 92.8196C100.46 92.9866 100.855 93.1814 101.109 93.4598C101.363 93.7381 101.533 94.1 101.533 94.5732C101.533 94.8515 101.476 95.102 101.363 95.3525C101.222 95.603 101.053 95.8257 100.855 95.9927C100.432 96.3268 99.8956 96.5216 99.2465 96.5216C99.0207 96.5216 98.7667 96.4938 98.4845 96.4381C98.2022 96.3824 97.9764 96.2989 97.7789 96.2154C97.666 96.1597 97.5813 96.1041 97.5531 96.0206C97.5249 95.9371 97.5249 95.8257 97.5249 95.6587V95.1855C97.5249 95.0185 97.5249 94.9072 97.5531 94.8237C97.5813 94.7402 97.6378 94.7123 97.6942 94.7123C97.7789 94.7123 97.8353 94.7402 97.8918 94.8237C97.92 94.8793 97.9764 94.9907 98.0047 95.1299C98.0611 95.3247 98.1176 95.4639 98.1458 95.5752C98.2022 95.6866 98.2587 95.7701 98.3434 95.8536C98.5691 96.0484 98.8514 96.1598 99.2465 96.1598C99.4441 96.1598 99.6134 96.1319 99.811 96.0484C99.9803 95.9649 100.15 95.8814 100.263 95.7144C100.375 95.5752 100.432 95.4082 100.432 95.2134C100.432 95.0463 100.404 94.9072 100.319 94.768C100.234 94.6567 100.15 94.5453 100.009 94.4618C99.8956 94.3783 99.7828 94.3226 99.6699 94.2948C99.557 94.2391 99.3876 94.1835 99.1336 94.0721C98.6538 93.8773 98.2869 93.6546 98.0047 93.4319C97.7224 93.2092 97.6095 92.9031 97.6095 92.5134C97.6095 92.1515 97.7224 91.8453 97.9482 91.567C98.174 91.2886 98.4562 91.0938 98.8232 90.9546C99.1618 90.8154 99.5287 90.7319 99.8674 90.7319C100.037 90.7319 100.234 90.7598 100.46 90.7876C100.686 90.8433 100.855 90.8989 100.996 90.9546C101.053 90.9824 101.081 91.0381 101.109 91.0938C101.109 91.1773 101.109 91.233 101.109 91.3721ZM95.6903 92.0958V95.2412C95.6903 95.436 95.6903 95.6031 95.7186 95.7144C95.7468 95.8257 95.8032 95.8814 95.8597 95.9371C95.9444 95.9927 96.0572 96.0484 96.1984 96.0762C96.3959 96.1041 96.4806 96.1876 96.4806 96.2711C96.4806 96.3824 96.4242 96.4381 96.283 96.4381C96.1137 96.4381 95.9161 96.4381 95.6057 96.4103C95.2952 96.4103 95.0694 96.3824 94.9283 96.3824C94.7872 96.3824 94.5896 96.3824 94.3074 96.4103C94.0252 96.4381 93.8276 96.4381 93.6865 96.4381C93.5454 96.4381 93.4889 96.3824 93.4889 96.2711C93.4889 96.1597 93.5736 96.1041 93.7429 96.0762C93.884 96.0484 93.9687 96.0206 94.0534 95.9927C94.138 95.9649 94.1945 95.9092 94.2227 95.8536C94.2509 95.7979 94.2792 95.7144 94.2792 95.6587C94.2792 95.5752 94.2792 95.436 94.2792 95.269V92.1237V91.901C94.2792 91.6783 94.2509 91.5391 94.1945 91.4556C94.138 91.3721 93.9969 91.3165 93.7711 91.2608C93.6865 91.233 93.6018 91.233 93.5454 91.2051C93.4889 91.1773 93.4889 91.1495 93.4889 91.066C93.4889 90.9546 93.5454 90.8989 93.6865 90.8989C93.8558 90.8989 94.0816 90.8989 94.3638 90.9268C94.6461 90.9268 94.8719 90.9546 95.013 90.9546C95.1541 90.9546 95.3517 90.9546 95.6057 90.9268C95.8597 90.8989 96.0855 90.8989 96.2266 90.8989C96.3677 90.8989 96.4524 90.9546 96.4524 91.066C96.4524 91.1495 96.3677 91.233 96.2266 91.233C96.0572 91.2608 95.9444 91.2886 95.8597 91.3443C95.775 91.4 95.7186 91.4556 95.7186 91.5113C95.6903 91.5948 95.6903 91.7062 95.6903 91.8732V92.0958ZM88.3522 91.8732V94.9628C88.3522 95.2412 88.3522 95.4639 88.3805 95.6031C88.4087 95.7422 88.4651 95.8814 88.5498 95.9649C88.6627 96.0484 88.8038 96.1041 89.0014 96.1041C89.2836 96.1041 89.5376 96.0206 89.7916 95.8814C90.0456 95.7422 90.2432 95.5195 90.4125 95.269C90.5537 95.0463 90.6666 94.7958 90.7512 94.4896C90.8359 94.1835 90.8641 93.9051 90.8641 93.5711C90.8641 93.2649 90.8077 92.9866 90.723 92.6804C90.6383 92.402 90.5254 92.1237 90.3561 91.901C90.215 91.6783 89.9892 91.4835 89.7634 91.3443C89.5376 91.2051 89.2272 91.1216 88.9449 91.1216C88.7474 91.1216 88.578 91.1495 88.4934 91.1773C88.4087 91.233 88.3522 91.2886 88.324 91.3721C88.3522 91.4835 88.3522 91.6505 88.3522 91.8732ZM86.9128 95.1855V92.0958C86.9128 91.901 86.9128 91.7618 86.8846 91.6783C86.8564 91.5948 86.8282 91.5113 86.7717 91.4556C86.7153 91.4 86.6024 91.3721 86.4613 91.3721C86.3484 91.3721 86.2637 91.3721 86.2073 91.3443C86.1508 91.3165 86.1508 91.2886 86.1508 91.233C86.1508 91.1216 86.3201 91.0103 86.6871 90.9546C87.054 90.8711 87.4491 90.8433 87.9007 90.8154C88.3522 90.7876 88.6627 90.7598 88.8603 90.7598C89.3118 90.7598 89.7352 90.7876 90.1021 90.8989C90.469 90.9824 90.8359 91.1495 91.1746 91.3721C91.5415 91.6227 91.8519 91.9288 92.0777 92.3185C92.3035 92.6804 92.4164 93.0979 92.4164 93.5711C92.4164 94.0165 92.3317 94.4061 92.1342 94.768C91.9648 95.1299 91.6826 95.436 91.3721 95.6866C91.0617 95.9371 90.6948 96.1319 90.2997 96.2711C89.9045 96.4103 89.4812 96.4659 89.0861 96.4659C88.8603 96.4659 88.4934 96.4659 88.0136 96.4381C87.5338 96.4381 87.1668 96.4103 86.9128 96.4103C86.8564 96.4103 86.7717 96.4103 86.6588 96.4381C86.5459 96.4659 86.4613 96.4659 86.4048 96.4659C86.2637 96.4659 86.2073 96.3824 86.2073 96.2711C86.2073 96.2154 86.2073 96.1598 86.2637 96.1598C86.2919 96.1319 86.3766 96.1041 86.4613 96.1041C86.6306 96.0484 86.7435 96.0206 86.7999 95.9649C86.8846 95.9371 86.9128 95.8536 86.9411 95.7979C86.9693 95.7144 86.9693 95.6031 86.9693 95.436L86.9128 95.1855ZM130.095 86.8629C130.433 86.8629 130.716 86.7237 130.941 86.501C131.167 86.2505 131.308 85.9443 131.421 85.5825C131.534 85.2206 131.562 84.8588 131.562 84.5247C131.562 84.2464 131.534 83.9402 131.45 83.634C131.365 83.3 131.28 83.0217 131.139 82.7155C130.998 82.4371 130.829 82.1866 130.575 82.0196C130.349 81.8247 130.067 81.7412 129.784 81.7412C129.446 81.7412 129.163 81.8804 128.938 82.1031C128.712 82.3536 128.542 82.6598 128.458 83.0217C128.345 83.3835 128.288 83.7454 128.288 84.0794C128.288 84.7474 128.43 85.332 128.684 85.833C129.079 86.5567 129.559 86.8907 130.095 86.8629ZM130.01 87.1969C129.643 87.1969 129.248 87.1412 128.853 87.0021C128.458 86.8629 128.119 86.6959 127.837 86.4732C127.526 86.2227 127.272 85.9165 127.103 85.5268C126.934 85.1371 126.849 84.7196 126.849 84.3299C126.849 83.9402 126.934 83.5784 127.075 83.2165C127.216 82.8825 127.442 82.5485 127.696 82.2701C128.26 81.7134 128.994 81.4072 129.841 81.4072C130.405 81.4072 130.913 81.5186 131.421 81.7691C131.901 82.0196 132.324 82.3536 132.607 82.7711C132.889 83.2165 133.058 83.7175 133.058 84.3021C133.058 84.7196 132.974 85.1093 132.832 85.4711C132.663 85.833 132.466 86.1392 132.155 86.3897C131.873 86.6402 131.534 86.8629 131.167 86.9742C130.8 87.1412 130.405 87.1969 130.01 87.1969ZM121.6 82.5485V85.666C121.6 85.9443 121.6 86.167 121.628 86.3062C121.656 86.4454 121.712 86.5845 121.797 86.668C121.91 86.7515 122.051 86.8072 122.249 86.8072C122.531 86.8072 122.813 86.7237 123.039 86.5845C123.293 86.4175 123.49 86.2227 123.66 85.9722C123.801 85.7495 123.914 85.4711 123.999 85.1928C124.055 84.8866 124.111 84.5804 124.111 84.2742C124.111 83.968 124.055 83.6897 123.97 83.3835C123.886 83.1052 123.773 82.8268 123.603 82.6041C123.434 82.3536 123.236 82.1866 123.011 82.0474C122.785 81.9083 122.474 81.8526 122.192 81.8526C121.966 81.8526 121.825 81.8804 121.741 81.9083C121.656 81.9361 121.6 82.0196 121.571 82.1031C121.628 82.1588 121.6 82.3258 121.6 82.5485ZM120.188 85.8608V82.7711C120.188 82.5763 120.188 82.4371 120.16 82.3536C120.132 82.2423 120.104 82.1866 120.019 82.1309C119.934 82.0753 119.85 82.0474 119.709 82.0474C119.567 82.0474 119.483 82.0474 119.455 82.0196C119.426 81.9918 119.398 81.9639 119.398 81.9083C119.398 81.7969 119.567 81.6856 119.934 81.6299C120.301 81.5464 120.696 81.4907 121.148 81.4907C121.6 81.4629 121.91 81.4351 122.136 81.4351C122.587 81.4351 123.011 81.4907 123.378 81.5742C123.744 81.6577 124.111 81.8247 124.45 82.0196C124.817 82.2701 125.127 82.5763 125.353 82.9381C125.579 83.3 125.664 83.7454 125.664 84.1907C125.664 84.6361 125.551 85.0258 125.381 85.3876C125.184 85.7495 124.93 86.0557 124.591 86.334C124.253 86.5845 123.914 86.7794 123.519 86.9185C123.124 87.0577 122.7 87.1134 122.305 87.1134C122.051 87.1134 121.712 87.1134 121.204 87.0856C120.696 87.0856 120.358 87.0856 120.104 87.0856C120.047 87.0856 119.963 87.0856 119.878 87.0856C119.765 87.1134 119.68 87.1134 119.624 87.1134C119.483 87.1134 119.426 87.0577 119.426 86.9185C119.426 86.8629 119.455 86.8072 119.483 86.7794C119.511 86.7515 119.567 86.7515 119.68 86.7237C119.821 86.6959 119.963 86.6402 120.019 86.5845C120.104 86.5289 120.132 86.4732 120.16 86.3897C120.188 86.3062 120.188 86.1948 120.188 86.0278V85.8608ZM117.281 84.9701V82.8268C117.281 82.5206 117.253 82.2979 117.225 82.2144C117.14 82.0474 116.999 81.9361 116.745 81.9361C116.689 81.9361 116.632 81.9361 116.576 81.9361C116.519 81.9361 116.491 81.9083 116.463 81.8804C116.435 81.8526 116.435 81.8248 116.435 81.7691C116.435 81.6299 116.548 81.6021 116.745 81.6021C116.83 81.6021 116.971 81.6021 117.14 81.6021C117.31 81.6021 117.451 81.6299 117.535 81.6299C117.62 81.6299 117.733 81.6299 117.902 81.6021C118.072 81.6021 118.213 81.6021 118.297 81.6021C118.467 81.6021 118.523 81.6577 118.523 81.7691C118.523 81.8526 118.495 81.8804 118.41 81.9083C118.326 81.9361 118.241 81.9361 118.072 81.9361C117.93 81.9639 117.818 82.0196 117.789 82.1031C117.733 82.2144 117.705 82.3536 117.705 82.5206V82.7155V86.8907C117.705 87.0577 117.676 87.1691 117.648 87.2247C117.62 87.2804 117.535 87.3082 117.422 87.3082C117.338 87.3082 117.253 87.2804 117.197 87.2247C117.14 87.1691 117.056 87.0856 116.971 86.9742L113.584 82.632V85.5546C113.584 86 113.612 86.2783 113.64 86.4175C113.697 86.5289 113.753 86.6124 113.81 86.668C113.894 86.6959 113.979 86.7515 114.12 86.7515C114.233 86.7515 114.346 86.7794 114.403 86.8072C114.459 86.8072 114.487 86.8629 114.487 86.9464C114.487 87.0856 114.403 87.1412 114.233 87.1412C114.149 87.1412 114.007 87.1412 113.838 87.1134C113.64 87.1134 113.528 87.1134 113.415 87.1134C113.33 87.1134 113.189 87.1134 112.991 87.1134C112.794 87.1412 112.681 87.1412 112.596 87.1412C112.427 87.1412 112.342 87.0856 112.342 86.9464C112.342 86.8629 112.37 86.8072 112.427 86.8072C112.483 86.7794 112.568 86.7794 112.681 86.7794C112.794 86.7794 112.85 86.7515 112.907 86.7237C112.963 86.6959 112.991 86.6124 113.048 86.5289C113.104 86.334 113.132 86 113.132 85.499V82.7433C113.132 82.4928 113.104 82.2979 113.076 82.1866C113.02 82.0753 112.935 82.0196 112.737 81.9918C112.624 81.9918 112.54 81.9639 112.483 81.9361C112.427 81.9083 112.399 81.8804 112.399 81.7969C112.399 81.6856 112.483 81.6299 112.681 81.6299H114.205C114.318 81.6299 114.403 81.6299 114.459 81.6577C114.515 81.6577 114.544 81.6856 114.572 81.7134C114.6 81.7412 114.657 81.8248 114.769 81.9361L117.281 84.9701ZM108.673 82.465V83.5505C108.673 83.7175 108.673 83.801 108.73 83.8845C108.758 83.9402 108.842 83.968 108.955 83.968C109.322 83.968 109.548 83.968 109.689 83.9402C109.887 83.9124 110.028 83.7454 110.113 83.467C110.169 83.2722 110.254 83.1608 110.367 83.1608C110.479 83.1608 110.536 83.2443 110.536 83.3835C110.536 83.467 110.536 83.6062 110.508 83.7732C110.508 83.9402 110.508 84.0794 110.479 84.1629C110.479 84.3299 110.479 84.5804 110.508 84.9144C110.508 85.0814 110.451 85.1649 110.338 85.1649C110.254 85.1649 110.169 85.1093 110.141 85.0258C110.084 84.9423 110.056 84.8309 110 84.7196C109.971 84.6082 109.887 84.4969 109.774 84.4412C109.689 84.3577 109.52 84.3299 109.322 84.3299L108.927 84.3577C108.814 84.3577 108.73 84.3856 108.701 84.4412C108.673 84.4969 108.645 84.5804 108.645 84.7196V85.7495C108.645 86.1113 108.701 86.334 108.786 86.4732C108.927 86.6402 109.125 86.7237 109.435 86.7237C109.746 86.7237 110.028 86.668 110.282 86.5289C110.536 86.3897 110.705 86.1948 110.846 85.9165C110.931 85.7216 111.016 85.6103 111.129 85.6103C111.27 85.6103 111.326 85.6938 111.326 85.8051C111.326 85.833 111.298 85.9722 111.27 86.1948L111.157 86.8907C111.157 87.002 111.1 87.0577 111.016 87.0577C110.79 87.0577 110.479 87.0577 110.028 87.0299C109.605 87.0299 109.294 87.0021 109.068 87.0021C108.786 87.0021 108.363 87.002 107.826 87.0299C107.262 87.0299 106.839 87.0577 106.585 87.0577C106.443 87.0577 106.387 87.002 106.387 86.8907C106.387 86.7794 106.472 86.7237 106.613 86.668C106.81 86.6402 106.923 86.5845 107.008 86.5289C107.064 86.4732 107.121 86.3897 107.149 86.3062C107.177 86.2227 107.177 86.0557 107.177 85.8608V82.7155C107.177 82.4928 107.177 82.3258 107.149 82.2423C107.121 82.1309 107.093 82.0474 107.008 81.9639C106.923 81.9083 106.81 81.8526 106.641 81.8248C106.443 81.7969 106.359 81.7412 106.359 81.6856C106.359 81.5464 106.415 81.4907 106.556 81.4907C106.754 81.4907 107.036 81.4907 107.347 81.5186C107.685 81.5186 107.911 81.5464 108.109 81.5464C108.391 81.5464 108.842 81.5464 109.407 81.5186C110 81.4907 110.451 81.4907 110.818 81.4907C110.875 81.4907 110.931 81.5186 110.959 81.5464C110.959 81.6021 110.987 81.6856 110.987 81.7969V82.5206C110.987 82.632 110.959 82.6876 110.959 82.7433C110.931 82.7711 110.875 82.799 110.818 82.799C110.733 82.799 110.649 82.7155 110.564 82.5485C110.479 82.4093 110.338 82.2423 110.169 82.1031C110.028 81.9918 109.802 81.9361 109.492 81.9361C109.068 81.9361 108.842 81.9639 108.73 82.0196C108.645 82.0474 108.617 82.1866 108.617 82.4371L108.673 82.465ZM105.427 85.833L105.399 86.2227C105.399 86.3897 105.371 86.501 105.343 86.5845C105.315 86.668 105.23 86.7237 105.117 86.8072C104.694 87.0856 104.129 87.2247 103.452 87.2247C103.028 87.2247 102.605 87.1691 102.21 87.0577C101.815 86.9464 101.448 86.7794 101.166 86.5567C100.827 86.3062 100.545 85.9722 100.347 85.5825C100.15 85.1928 100.065 84.7753 100.065 84.3577C100.065 83.9124 100.178 83.5227 100.347 83.133C100.545 82.7711 100.827 82.4371 101.166 82.1588C101.476 81.9083 101.871 81.7412 102.295 81.6021C102.746 81.4629 103.17 81.4072 103.593 81.4072C104.044 81.4072 104.496 81.4629 104.891 81.6021C105.004 81.6299 105.061 81.6577 105.089 81.7134C105.117 81.7412 105.145 81.8248 105.173 81.9639L105.23 82.4093C105.258 82.5206 105.286 82.6041 105.286 82.6598C105.286 82.7711 105.23 82.799 105.117 82.799C105.032 82.799 104.948 82.7433 104.891 82.632C104.807 82.5206 104.722 82.4093 104.609 82.2423C104.496 82.1031 104.355 81.9639 104.186 81.8804C104.016 81.7969 103.79 81.7412 103.536 81.7412C103.254 81.7412 103 81.8248 102.746 81.9639C102.492 82.1031 102.266 82.2979 102.125 82.5485C101.815 82.9938 101.646 83.5784 101.646 84.2742C101.646 84.9423 101.787 85.499 102.097 85.9722C102.266 86.2505 102.464 86.4454 102.746 86.6124C103 86.7794 103.282 86.835 103.593 86.835C103.932 86.835 104.214 86.7237 104.496 86.501C104.665 86.3618 104.863 86.0835 105.061 85.6938C105.117 85.5546 105.202 85.499 105.286 85.499C105.399 85.5268 105.456 85.6381 105.427 85.833ZM96.0008 86.8629C96.3395 86.8629 96.6217 86.7237 96.8475 86.501C97.0733 86.2505 97.2144 85.9443 97.3273 85.5825C97.412 85.2206 97.4684 84.8588 97.4684 84.5247C97.4684 84.2464 97.4402 83.9402 97.3555 83.634C97.2709 83.3 97.1862 82.9938 97.0451 82.7155C96.904 82.4371 96.7064 82.1866 96.4806 82.0196C96.2548 81.8247 96.0008 81.7412 95.6903 81.7412C95.3517 81.7412 95.0694 81.8804 94.8436 82.1031C94.6179 82.3536 94.4767 82.6598 94.3638 83.0217C94.2509 83.3835 94.2227 83.7454 94.2227 84.0794C94.2227 84.7474 94.3638 85.332 94.6178 85.8608C94.9848 86.5289 95.4646 86.8629 96.0008 86.8629ZM95.9161 87.1969C95.5492 87.1969 95.1541 87.1412 94.759 87.0021C94.3638 86.8629 94.0252 86.6959 93.7429 86.4732C93.4325 86.2227 93.1785 85.9165 93.0091 85.5268C92.8398 85.1371 92.7551 84.7196 92.7551 84.3299C92.7551 83.9402 92.8398 83.5784 92.9809 83.2165C93.122 82.8825 93.3478 82.5485 93.63 82.2701C94.1945 81.7134 94.9283 81.4072 95.775 81.4072C96.3395 81.4072 96.8475 81.5186 97.3555 81.7691C97.8636 82.0196 98.2587 82.3536 98.5409 82.7711C98.8514 83.2165 98.9925 83.7175 98.9925 84.3021C98.9925 84.7196 98.9078 85.1093 98.7385 85.4711C98.5691 85.833 98.3434 86.1392 98.0611 86.3897C97.7789 86.668 97.4402 86.8629 97.0733 87.0021C96.7064 87.1134 96.3113 87.1969 95.9161 87.1969ZM87.5055 82.5206V85.6381C87.5055 85.9165 87.5055 86.1392 87.562 86.2783C87.5902 86.4175 87.6466 86.5567 87.7313 86.6402C87.8442 86.7237 87.9853 86.7794 88.1829 86.7794C88.4651 86.7794 88.7191 86.6959 88.9731 86.5567C89.2272 86.4175 89.4247 86.1948 89.5941 85.9722C89.7634 85.7495 89.8763 85.4711 89.9328 85.1928C90.0174 84.8866 90.0456 84.5804 90.0456 84.2742C90.0456 83.968 89.9892 83.6619 89.9328 83.3835C89.8481 83.1052 89.707 82.8268 89.5658 82.6041C89.3965 82.3815 89.1989 82.1866 88.9731 82.0474C88.7191 81.9083 88.4369 81.8526 88.1547 81.8526C87.9289 81.8526 87.7878 81.8804 87.7031 81.9083C87.6184 81.9361 87.562 82.0196 87.5338 82.1031C87.5055 82.1588 87.4773 82.3258 87.5055 82.5206ZM86.0661 85.8608V82.7711C86.0661 82.5763 86.0379 82.4371 86.0379 82.3536C86.0097 82.2423 85.9815 82.1866 85.925 82.1309C85.8686 82.0753 85.7557 82.0474 85.6146 82.0474C85.4734 82.0474 85.417 82.0474 85.3605 82.0196C85.3041 81.9918 85.2759 81.9639 85.2759 81.9083C85.2759 81.7969 85.4452 81.6856 85.8403 81.6299C86.2073 81.5464 86.6024 81.4907 87.054 81.4907C87.5055 81.4629 87.816 81.4351 88.0418 81.4351C88.4934 81.4351 88.9167 81.4907 89.2836 81.5742C89.6505 81.6577 90.0174 81.7969 90.3561 82.0196C90.7512 82.2701 91.0335 82.5763 91.2593 82.9381C91.4568 83.3 91.5697 83.7454 91.5697 84.1907C91.5697 84.6361 91.485 85.0258 91.2875 85.3876C91.0899 85.7495 90.8359 86.0557 90.5254 86.334C90.215 86.6124 89.8481 86.7794 89.453 86.9185C89.0578 87.0577 88.6627 87.1134 88.2393 87.1134C87.9853 87.1134 87.6466 87.1134 87.1386 87.0856C86.6588 87.0856 86.2919 87.0856 86.0379 87.0856C85.9815 87.0856 85.8968 87.0856 85.7839 87.0856C85.671 87.1134 85.5863 87.1134 85.5299 87.1134C85.3888 87.1134 85.3041 87.0577 85.3041 86.9185C85.3041 86.8629 85.3323 86.8072 85.3605 86.7794C85.3888 86.7515 85.4734 86.7515 85.5299 86.7237C85.6992 86.6959 85.8121 86.6402 85.8686 86.5845C85.9532 86.5289 85.9815 86.4732 86.0097 86.3897C86.0379 86.3062 86.0379 86.1948 86.0379 86.0278V85.8608H86.0661Z" fill="#1D1C1A"/>
<path d="M131.25 91.4161V91.9957C131.25 92.2165 131.195 92.3269 131.084 92.3269C130.972 92.3269 130.917 92.2441 130.861 92.0785C130.778 91.7749 130.639 91.5541 130.5 91.3885C130.361 91.2229 130.167 91.1401 129.917 91.1401C129.778 91.1401 129.612 91.1677 129.473 91.2505C129.334 91.3057 129.195 91.4161 129.112 91.5265C129.028 91.6369 128.973 91.7749 128.973 91.9405C128.973 92.1337 129.056 92.2993 129.167 92.4097C129.306 92.5201 129.501 92.6029 129.723 92.6857L130.139 92.8237C130.611 92.9893 130.972 93.1825 131.222 93.4585C131.472 93.7345 131.611 94.0933 131.611 94.5625C131.611 94.8385 131.556 95.0869 131.445 95.3353C131.306 95.5837 131.167 95.8045 130.972 95.9701C130.584 96.3013 130.056 96.4945 129.445 96.4945C129.251 96.4945 129.001 96.4669 128.723 96.4117C128.473 96.3565 128.223 96.2737 128.084 96.1909C127.973 96.1357 127.918 96.0805 127.89 96.0253C127.862 95.9425 127.862 95.8321 127.862 95.6665V95.1973C127.862 95.0317 127.862 94.9213 127.89 94.8385C127.918 94.7557 127.945 94.7281 128.029 94.7281C128.112 94.7281 128.168 94.7557 128.223 94.8385C128.251 94.8937 128.279 95.0041 128.334 95.1421C128.39 95.3353 128.445 95.4733 128.473 95.5837C128.529 95.6941 128.584 95.7769 128.667 95.8597C128.862 96.0805 129.167 96.1633 129.528 96.1633C129.723 96.1633 129.889 96.1357 130.056 96.0529C130.223 95.9701 130.361 95.8873 130.473 95.7217C130.584 95.5837 130.639 95.4181 130.639 95.2249C130.639 95.0593 130.611 94.9213 130.528 94.7833C130.445 94.6729 130.361 94.5625 130.25 94.4797C130.139 94.3969 130.028 94.3417 129.917 94.2865C129.834 94.2313 129.639 94.1761 129.417 94.0657C128.973 93.8449 128.612 93.6517 128.362 93.4309C128.112 93.2101 127.973 92.9065 127.973 92.5201C127.973 92.1613 128.084 91.8577 128.306 91.5817C128.529 91.3057 128.806 91.1125 129.14 90.9745C129.473 90.8364 129.806 90.7812 130.139 90.7812C130.306 90.7812 130.5 90.8088 130.723 90.8364C130.945 90.8917 131.111 90.9469 131.222 91.0021C131.278 91.0297 131.306 91.0849 131.333 91.1401C131.222 91.1953 131.25 91.2781 131.25 91.4161ZM126.279 92.1613V94.4521C126.279 94.8385 126.279 95.1421 126.196 95.3905C126.14 95.6113 126.001 95.8321 125.779 96.0253C125.39 96.3565 124.835 96.5497 124.141 96.5497C123.446 96.5497 122.891 96.4117 122.502 96.1633C122.335 96.0253 122.169 95.8873 122.086 95.7217C121.974 95.5561 121.919 95.3905 121.891 95.1973C121.863 95.0041 121.836 94.7833 121.836 94.5349V92.1337V91.9129C121.836 91.6921 121.808 91.5541 121.752 91.4713C121.697 91.3885 121.586 91.3333 121.363 91.2781C121.28 91.2505 121.197 91.2505 121.169 91.2229C121.114 91.1953 121.114 91.1677 121.114 91.0849C121.114 90.9745 121.169 90.9193 121.308 90.9193C121.475 90.9193 121.697 90.9193 121.974 90.9469C122.252 90.9469 122.447 90.9745 122.585 90.9745C122.724 90.9745 122.891 90.9745 123.169 90.9469C123.419 90.9193 123.613 90.9193 123.78 90.9193C123.918 90.9193 123.974 90.9745 123.974 91.0849C123.974 91.1401 123.946 91.1953 123.918 91.2229C123.863 91.2505 123.807 91.2505 123.752 91.2781C123.585 91.3057 123.474 91.3333 123.391 91.3885C123.307 91.4437 123.28 91.4989 123.252 91.5541C123.224 91.6369 123.224 91.7473 123.224 91.9129V92.1337V94.0657C123.224 94.7833 123.252 95.2525 123.335 95.4457C123.419 95.6941 123.585 95.8597 123.78 95.9977C124.002 96.1081 124.224 96.1633 124.502 96.1633C125.057 96.1633 125.418 95.9977 125.668 95.6665C125.779 95.5009 125.835 95.3353 125.89 95.1697C125.918 95.0041 125.918 94.7557 125.918 94.4797V92.2441C125.918 91.9129 125.89 91.6645 125.835 91.5541C125.751 91.4161 125.64 91.3333 125.39 91.3057C125.335 91.3057 125.279 91.3057 125.224 91.3057C125.168 91.3057 125.14 91.2781 125.113 91.2781C125.085 91.2505 125.057 91.2229 125.057 91.1401C125.057 91.0573 125.085 91.0021 125.14 91.0021C125.196 90.9745 125.252 90.9745 125.335 90.9745C125.418 90.9745 125.529 90.9745 125.696 90.9745C125.862 90.9745 126.001 91.0021 126.057 91.0021C126.14 91.0021 126.251 90.9745 126.418 90.9745C126.585 90.9745 126.696 90.9745 126.779 90.9745C126.918 90.9745 126.973 91.0297 126.973 91.1401C126.973 91.1953 126.946 91.2229 126.918 91.2505C126.89 91.2781 126.834 91.2781 126.779 91.3057C126.723 91.3333 126.668 91.3333 126.668 91.3333C126.557 91.3609 126.473 91.3609 126.418 91.4161C126.362 91.4713 126.307 91.5265 126.279 91.6369C126.307 91.6921 126.279 91.9129 126.279 92.1613Z" fill="#1D1C1A"/>
<path d="M103.843 59.2702V64.4816C103.843 64.971 103.872 65.2877 103.958 65.4029C104.043 65.5469 104.272 65.6045 104.615 65.6045C104.986 65.6045 105.186 65.6908 105.186 65.8636C105.186 66.0363 105.043 66.1227 104.758 66.1227C104.643 66.1227 104.501 66.1227 104.3 66.0939C104.1 66.0651 103.929 66.0651 103.815 66.0651C103.672 66.0651 103.472 66.0651 103.214 66.0363C102.957 66.0363 102.757 66.0076 102.614 66.0076C102.5 66.0076 102.357 66.0075 102.186 66.0363C102.014 66.0363 101.871 66.0651 101.786 66.0651C101.7 66.0651 101.557 66.0651 101.385 66.0939C101.214 66.0939 101.071 66.1227 100.985 66.1227C100.871 66.1227 100.785 66.0939 100.728 66.0651C100.671 66.0363 100.642 65.9788 100.642 65.8924C100.642 65.7196 100.814 65.6333 101.185 65.6333C101.5 65.6333 101.757 65.6045 101.871 65.5181C101.986 65.4605 102.043 65.3741 102.071 65.2302C102.1 65.115 102.1 64.971 102.1 64.7695V60.7098C102.1 60.4219 102.1 60.2491 102.071 60.1627C102.043 60.0476 101.986 59.99 101.843 59.99C101.786 59.99 101.671 60.0188 101.557 60.0476L101.071 60.1915C100.757 60.2779 100.585 60.3067 100.557 60.3067C100.385 60.3067 100.3 60.2491 100.3 60.1052C100.3 60.0476 100.328 59.9612 100.385 59.9036C100.442 59.846 100.5 59.8172 100.585 59.7884C100.671 59.7596 100.728 59.7309 100.814 59.7021C100.9 59.6733 100.985 59.6445 101.043 59.6445C102.1 59.3853 102.872 59.1262 103.443 58.8671C103.529 58.8095 103.586 58.8095 103.643 58.8095C103.786 58.7807 103.872 58.9247 103.843 59.2702ZM97.1274 61.6023C97.156 61.6023 97.2131 61.5736 97.2417 61.5448C97.2988 61.516 97.3274 61.4584 97.356 61.4296C97.556 61.1705 97.6418 60.9113 97.6418 60.6234C97.6418 60.2203 97.5275 59.9036 97.3274 59.6157C97.0988 59.3278 96.813 59.2126 96.4129 59.2126C96.1271 59.2126 95.8414 59.299 95.6127 59.5005C95.3841 59.6733 95.2698 59.9324 95.2698 60.2203C95.2698 60.3931 95.327 60.5658 95.4413 60.7098C95.5556 60.8537 95.6985 60.9689 95.8699 61.0841C96.0414 61.1993 96.2129 61.2856 96.4129 61.3432C96.5844 61.4296 96.7844 61.4872 96.9559 61.5448C96.9559 61.5448 96.9845 61.5448 97.0131 61.5736C97.0416 61.5736 97.0702 61.6023 97.0988 61.6023C97.0988 61.6023 97.1274 61.6023 97.1274 61.6023ZM96.4701 65.7772C96.6701 65.7772 96.8702 65.7196 97.0702 65.6045C97.2703 65.4893 97.4417 65.3453 97.556 65.1726C97.6989 64.9998 97.7561 64.7983 97.7561 64.5967C97.7561 64.28 97.6418 63.9921 97.4417 63.7906C97.2417 63.589 96.9559 63.3875 96.613 63.2147C96.1272 62.9844 95.8128 62.8404 95.6985 62.8404C95.6127 62.8404 95.527 62.9268 95.3555 63.1283C95.1555 63.3875 95.0412 63.733 95.0412 64.1648C95.0412 64.4528 95.0983 64.7119 95.2126 64.9422C95.327 65.1726 95.4984 65.3741 95.7271 65.5181C95.9271 65.6908 96.1843 65.7484 96.4701 65.7772ZM96.3558 66.2091C96.07 66.2091 95.7556 66.1803 95.4127 66.0939C95.0983 66.0363 94.784 65.9212 94.4982 65.7772C94.2124 65.6333 93.9838 65.4317 93.8123 65.2014C93.6409 64.9422 93.5551 64.6831 93.5551 64.3664C93.5551 63.8769 93.7266 63.5026 94.0695 63.2147C94.3267 62.9844 94.6125 62.8404 94.9554 62.754C95.0698 62.7252 95.1269 62.6964 95.1269 62.6389C95.1269 62.6101 95.1269 62.6101 95.0983 62.6101C95.0698 62.5813 95.0412 62.5813 95.0126 62.5525C94.984 62.5237 94.9554 62.5237 94.9554 62.5237C94.6125 62.3509 94.3553 62.1206 94.1267 61.8327C93.9266 61.5448 93.8409 61.228 93.8409 60.8537C93.8409 60.2491 94.0981 59.7596 94.6411 59.3566C95.0983 59.0111 95.7271 58.8383 96.5272 58.8383C97.156 58.8383 97.6704 58.9535 98.0704 59.1262C98.3277 59.2702 98.5563 59.4429 98.7277 59.6733C98.8992 59.9036 98.9849 60.1627 98.9849 60.4507C98.9849 60.7386 98.8706 61.0265 98.6706 61.228C98.4705 61.4296 98.2133 61.6023 97.899 61.6887C97.7561 61.7463 97.6704 61.7751 97.6704 61.8327C97.6704 61.8615 97.7561 61.9191 97.9561 62.0054C98.3562 62.1782 98.6992 62.4373 98.9564 62.7828C99.2136 63.1283 99.3279 63.5314 99.3279 63.9345C99.3279 64.2512 99.2136 64.5679 99.0421 64.8847C98.8421 65.2014 98.6134 65.4605 98.3277 65.6333C97.7847 66.0076 97.156 66.2091 96.3558 66.2091ZM91.326 60.3643L89.097 60.5658C88.8969 60.5946 88.754 60.5946 88.6969 60.5946C88.6397 60.6234 88.554 60.6522 88.5254 60.7098C88.4682 60.7674 88.4397 60.8537 88.4397 60.9977C88.4397 61.1417 88.554 61.1993 88.754 61.1993C89.1541 61.1993 89.6114 61.2568 90.0972 61.3144C90.583 61.372 90.9545 61.4584 91.1832 61.5736C91.4689 61.7175 91.7261 61.8615 91.9262 62.063C92.1548 62.2646 92.3263 62.4949 92.4406 62.754C92.5835 63.0132 92.6406 63.3011 92.6406 63.589C92.6406 64.1361 92.4692 64.6255 92.1548 65.0862C91.8404 65.5469 91.4118 65.9212 90.8974 66.2091C90.4687 66.4394 89.9829 66.641 89.4399 66.7849C88.8969 66.9289 88.3825 66.9865 87.8681 66.9865C87.7538 66.9865 87.6395 66.9865 87.5823 66.9577C87.4966 66.9289 87.468 66.8713 87.468 66.7849C87.468 66.7274 87.4966 66.6986 87.5252 66.6698C87.5823 66.641 87.6109 66.6122 87.6681 66.6122C87.7252 66.5834 87.7824 66.5834 87.8681 66.5834C87.9253 66.5834 87.9824 66.5834 88.011 66.5546C88.4682 66.5258 88.9255 66.4106 89.3827 66.2379C89.84 66.0651 90.2401 65.8348 90.5544 65.5181C90.8688 65.2014 91.0403 64.8271 91.0403 64.3952C91.0403 64.0497 90.9545 63.7906 90.7545 63.5314C90.5544 63.3011 90.2972 63.0995 89.9829 62.9556C89.6971 62.8404 89.4399 62.754 89.1541 62.7252C88.8683 62.6964 88.4968 62.6677 88.0396 62.6101C88.011 62.6101 87.9824 62.6101 87.9253 62.6101C87.8681 62.6101 87.811 62.6101 87.7538 62.5813C87.6966 62.5813 87.6681 62.5525 87.6395 62.5237C87.6109 62.4949 87.6109 62.4661 87.6109 62.4373C87.6109 62.4085 87.6109 62.3509 87.6395 62.2646C87.6681 62.1782 87.6681 62.1494 87.6966 62.0918L88.4397 59.4141C88.4682 59.299 88.4968 59.2414 88.554 59.1838C88.5826 59.1262 88.6111 59.1262 88.6683 59.0974C88.7254 59.0974 88.8112 59.0686 88.9826 59.0686L92.1548 58.6943C92.2405 58.6943 92.2977 58.7231 92.2977 58.8383C92.2977 58.8671 92.2691 58.9823 92.212 59.2126C92.0976 59.7309 91.9833 60.0188 91.9262 60.1627C91.7833 60.2779 91.6118 60.3355 91.326 60.3643ZM84.8388 59.2702V64.4816C84.8388 64.971 84.8674 65.2877 84.9531 65.4029C85.0389 65.5469 85.2675 65.6045 85.6104 65.6045C85.982 65.6045 86.182 65.6908 86.182 65.8636C86.182 66.0363 86.0391 66.1227 85.7533 66.1227C85.639 66.1227 85.4961 66.1227 85.2961 66.0939C85.096 66.0651 84.9246 66.0651 84.8103 66.0651C84.6674 66.0651 84.4673 66.0651 84.2101 66.0363C83.9243 66.0363 83.7529 66.0076 83.61 66.0076C83.5243 66.0076 83.3814 66.0075 83.1813 66.0363C83.0098 66.0363 82.867 66.0651 82.7812 66.0651C82.6955 66.0651 82.5812 66.0651 82.3811 66.0939C82.2097 66.0939 82.0668 66.1227 81.981 66.1227C81.8667 66.1227 81.781 66.0939 81.7238 66.0651C81.6667 66.0363 81.6381 65.9788 81.6381 65.8924C81.6381 65.7196 81.8096 65.6333 82.1811 65.6333C82.4954 65.6333 82.7526 65.6045 82.867 65.5181C82.9813 65.4605 83.0384 65.3741 83.067 65.2302C83.0956 65.115 83.0956 64.971 83.0956 64.7695V60.7098C83.0956 60.4219 83.0956 60.2491 83.067 60.1627C83.067 60.0476 82.9813 59.99 82.8384 59.99C82.7812 59.99 82.6955 60.0188 82.5526 60.0476L82.0668 60.1915C81.7524 60.2779 81.5809 60.3067 81.5524 60.3067C81.3809 60.3067 81.2952 60.2491 81.2952 60.1052C81.2952 60.0476 81.3237 59.9612 81.3809 59.9036C81.4381 59.846 81.4952 59.8172 81.5809 59.7884C81.6667 59.7596 81.7524 59.7309 81.8381 59.7021C81.9239 59.6733 81.981 59.6445 82.0382 59.6445C83.0956 59.3853 83.8672 59.1262 84.4387 58.8671C84.5245 58.8095 84.5816 58.8095 84.6388 58.8095C84.7531 58.8095 84.8388 58.9535 84.8388 59.299V59.2702Z" fill="#1D1C1A"/>
<path d="M155.291 119.06C154.724 118.637 153.958 118.637 153.334 119.032C152.625 119.483 151.945 119.935 151.293 120.414C152.427 116.915 153.249 111.863 150.952 106.84C150.641 106.163 149.988 105.768 149.251 105.768C148.514 105.768 147.862 106.191 147.578 106.868C146.529 109.239 145.792 111.525 145.423 113.811C145.083 113.613 144.686 113.528 144.289 113.585C143.694 113.67 144.317 114.403 144.034 114.94L142.786 116.012C142.73 116.125 142.021 116.181 141.992 116.322C141.085 119.681 140.915 122.39 141.085 124.563L140.972 124.704C139.128 126.623 137.966 128.683 137.229 130.659C136.775 130.602 136.321 130.687 135.924 130.941C134.847 131.675 133.996 132.098 133.174 132.973C133.089 132.86 132.834 133.114 132.72 133.029C132.153 132.606 131.416 132.55 130.792 132.86L129.97 133.255C126.369 135.061 123.533 137.178 121.322 139.379C121.265 139.125 121.152 138.871 120.981 138.674C120.584 138.166 118.883 139.661 118.231 139.746C117.55 139.266 108.987 144.177 108.732 144.882C106.747 147.225 104.451 148.015 103.628 149.821C102.636 151.881 102.296 153.575 102.296 154.929C100.396 155.409 98.4109 155.945 96.4828 156.594C96.4545 156.594 96.4261 156.623 96.3694 156.623C95.4053 156.989 94.4696 157.441 93.5056 157.949C92.1729 157.159 90.8686 156.51 89.5359 155.973C89.5075 155.973 89.4792 155.945 89.4225 155.945C87.4376 155.296 85.4528 154.76 83.5246 154.252C83.3829 152.587 82.6173 150.047 79.8952 146.83C79.0446 145.814 77.4851 145.334 76.2091 144.205C74.0825 142.343 71.7574 141.298 70.2546 140.367C67.4191 138.589 67.5325 138.561 67.3624 138.561L66.455 138.166C65.8312 138.081 65.3775 137.517 64.9806 138.025C64.8104 138.25 64.6687 138.504 64.612 138.758C62.4003 136.585 59.5648 134.441 55.9637 132.634L55.1698 132.239C54.546 131.929 53.8088 131.985 53.2417 132.409C53.1283 132.493 53.0148 132.606 52.9298 132.719C52.0791 131.872 51.1151 131.054 50.0376 130.348C49.6406 130.094 49.1869 129.982 48.7332 130.066C48.0244 128.091 46.8618 126.031 44.9904 124.111L44.6218 123.716C44.5934 123.688 44.5367 123.632 44.5084 123.603C44.5934 121.741 44.3666 119.681 43.5727 117.592C43.5727 117.564 43.5443 117.536 43.516 117.479L42.722 115.758C42.4101 115.081 41.758 114.686 41.0207 114.686C40.9357 114.686 40.879 114.686 40.7939 114.714C40.5387 111.948 39.7448 109.211 38.4688 106.304C38.1852 105.655 37.5047 105.203 36.7959 105.203C36.087 105.203 35.4065 105.626 35.1229 106.276C32.8262 111.299 33.6201 116.351 34.7827 119.85C34.1589 119.37 33.45 118.919 32.7411 118.467C32.1173 118.1 31.3517 118.1 30.7563 118.467C30.1608 118.862 29.8206 119.54 29.9056 120.245C30.3593 123.999 32.0322 126.905 33.9037 129.078C33.2799 129.05 32.6844 129.304 32.3158 129.812C31.9188 130.348 31.8338 131.026 32.089 131.647C33.3649 134.666 35.0946 136.726 36.8809 138.138C36.7108 138.166 36.5123 138.194 36.3138 138.222C35.6617 138.335 35.1229 138.787 34.8961 139.379C34.6692 140 34.7827 140.677 35.1796 141.185C37.2779 143.754 39.6313 145.221 41.8997 146.011C41.7863 146.068 41.6729 146.124 41.5595 146.152C40.964 146.435 40.5387 147.027 40.5103 147.676C40.4536 148.325 40.7655 148.975 41.3326 149.341C44.9621 151.768 48.7049 153.208 52.4194 153.631C51.3419 154.083 50.6897 154.421 50.6047 154.478C50.0659 154.76 49.6973 155.296 49.6406 155.917C49.5839 156.51 49.8391 157.131 50.3211 157.526C50.548 157.723 56.0772 162.21 61.9466 162.21C62.2585 162.21 62.5421 162.21 62.854 162.182C70.765 161.646 74.2243 159.219 75.7271 157.187C75.8972 157.243 76.039 157.272 76.2091 157.328C77.2582 157.61 78.3641 157.893 79.6684 158.231C79.8102 158.288 79.9519 158.372 80.0937 158.429L80.4056 158.57C80.7459 158.711 81.1145 158.739 81.4547 158.683C81.7383 158.767 82.0218 158.824 82.3054 158.88C82.7307 158.993 83.156 159.078 83.5814 159.162C85.1692 159.529 86.6437 159.868 88.1181 160.32C88.4867 160.461 88.8837 160.602 89.2807 160.771C89.224 160.799 89.1956 160.828 89.1389 160.884C81.3697 166.19 76.7478 174.233 76.5494 174.571C76.0957 175.362 76.2942 176.349 77.0314 176.914C77.3716 177.168 77.7686 177.309 78.1656 177.309C78.6193 177.309 79.0729 177.14 79.4415 176.801C80.434 175.87 82.3621 174.543 83.5246 174.487C84.2335 174.458 84.8857 174.007 85.1409 173.33C86.7571 169.35 90.2731 165.823 92.9952 163.565C93.1653 163.452 93.3354 163.339 93.5056 163.226C96.1426 165.484 99.4601 168.899 100.991 172.681C101.275 173.33 101.899 173.781 102.607 173.838C103.77 173.894 105.698 175.22 106.691 176.152C107.059 176.49 107.513 176.66 107.967 176.66C108.987 176.66 109.81 175.841 109.81 174.825C109.81 174.458 109.696 174.092 109.498 173.809C108.902 172.793 104.791 165.936 98.014 160.969C99.4601 160.517 100.963 160.178 102.551 159.812C102.976 159.699 103.401 159.614 103.827 159.529C104.11 159.473 104.394 159.388 104.677 159.332C105.018 159.388 105.386 159.36 105.726 159.219L106.038 159.078C106.18 159.021 106.322 158.937 106.464 158.88C107.768 158.542 108.874 158.259 109.923 157.949C110.065 157.893 110.235 157.864 110.405 157.808C111.908 159.868 115.339 162.267 123.278 162.803C123.562 162.831 123.874 162.831 124.185 162.831C130.055 162.831 135.584 158.344 135.811 158.146C136.293 157.751 136.52 157.159 136.463 156.538C136.406 155.917 136.038 155.381 135.499 155.099C135.414 155.042 134.762 154.732 133.713 154.252C137.427 153.829 141.17 152.389 144.799 149.962C145.367 149.595 145.678 148.946 145.622 148.297C145.565 147.648 145.168 147.055 144.573 146.773C144.459 146.717 144.346 146.66 144.232 146.632C146.501 145.842 148.854 144.374 150.952 141.806C151.378 141.298 151.491 140.621 151.236 140C151.009 139.379 150.47 138.956 149.818 138.843C149.648 138.815 149.45 138.787 149.251 138.758C151.038 137.347 152.767 135.287 154.043 132.267C154.298 131.675 154.213 130.969 153.816 130.433C153.448 129.925 152.852 129.671 152.228 129.699C154.1 127.526 155.773 124.619 156.226 120.866C156.226 120.132 155.915 119.455 155.291 119.06ZM147.068 115.645C146.869 117.987 147.039 120.358 147.607 122.842C147.039 120.386 146.869 118.016 147.068 115.645ZM39.0359 116.774C39.0359 118.552 38.8374 120.358 38.4121 122.192C38.8374 120.358 39.0359 118.552 39.0359 116.774C39.0359 116.181 39.0075 115.589 38.9508 114.996C39.0075 115.617 39.0359 116.181 39.0359 116.774ZM153.986 122.531C153.986 122.588 153.958 122.616 153.958 122.672L153.93 122.729C152.087 129.107 146.331 132.211 145.083 132.832C145.083 132.832 145.055 132.832 145.055 132.86C144.317 134.582 143.467 136.218 142.531 137.714V137.742H142.559C146.501 133.453 148.854 131.929 152.257 131.477C149.138 138.871 142.956 139.746 141.142 139.803C141.142 139.803 141.142 139.803 141.113 139.803C140.348 140.847 139.469 141.891 138.505 142.907V142.935C138.505 142.935 138.533 142.963 138.533 142.935C140.886 141.581 143.098 140.282 146.501 140.282C147.408 140.282 148.372 140.367 149.421 140.536C146.047 144.657 141.851 145.532 138.93 145.532C137.966 145.532 136.945 145.419 136.009 145.249H135.981C134.96 146.096 133.94 146.858 132.919 147.535C132.465 147.817 131.983 148.1 131.473 148.41C131.473 148.41 131.444 148.438 131.473 148.438C131.473 148.467 131.501 148.467 131.501 148.467C133.996 147.733 136.35 147.366 138.505 147.366C140.546 147.366 142.276 147.705 143.694 148.354C139.611 151.063 135.471 152.446 131.331 152.446C128.439 152.446 126.369 151.768 125.376 151.345C125.376 151.345 125.376 151.345 125.348 151.345C124.044 151.853 122.711 152.305 121.378 152.728C121.152 152.813 120.896 152.869 120.698 152.926C120.556 152.982 120.414 153.01 120.244 153.067C120.244 153.067 120.216 153.067 120.216 153.095C120.216 153.123 120.216 153.123 120.244 153.123C127.588 153.18 133.996 156.369 134.563 156.651C134.11 157.018 129.148 160.884 124.157 160.884C123.902 160.884 123.647 160.884 123.392 160.856C114.063 160.235 111.851 156.933 111.312 155.55C111.312 155.522 111.284 155.522 111.284 155.522L110.915 155.635C110.405 155.776 109.895 155.917 109.384 156.058C108.307 156.369 107.173 156.651 105.783 157.018L105.641 157.074C105.5 157.131 105.386 157.215 105.244 157.272L104.961 157.385L104.876 157.272H104.847C104.677 157.3 104.507 157.356 104.337 157.385C103.997 157.469 103.657 157.554 103.316 157.639C102.891 157.751 102.466 157.836 102.04 157.921C100.481 158.288 98.8646 158.654 97.3335 159.134C96.3127 159.501 95.3203 159.953 94.2711 160.517L94.2428 160.545V160.574C94.7532 160.94 95.2636 161.307 95.7739 161.702C102.636 166.359 107.059 173.499 107.74 174.656C107.144 174.12 104.677 172.088 102.636 171.975C100.849 167.601 97.0499 163.819 94.1861 161.42C93.9592 161.279 93.7324 161.11 93.5339 160.969H93.5056C92.9101 161.307 92.343 161.674 91.7759 162.041C88.8837 164.44 85.0842 168.222 83.3262 172.596C81.2563 172.737 78.8177 174.769 78.2223 175.305C78.9028 174.148 83.2978 167.008 90.188 162.351C91.0387 161.702 91.9177 161.082 92.7683 160.545V160.517C92.7683 160.517 92.7683 160.489 92.74 160.489C91.3222 159.642 89.9895 158.993 88.6285 158.513C87.0974 158.034 85.4811 157.667 83.9216 157.3C83.4963 157.187 83.071 157.102 82.6456 157.018C82.3054 156.933 81.9651 156.848 81.6249 156.764C81.4547 156.735 81.2846 156.679 81.1145 156.651H81.1428H81.1145L81.0294 156.764L80.7459 156.651C80.6041 156.594 80.4907 156.538 80.3489 156.481L80.2071 156.425C78.8461 156.086 77.7119 155.776 76.6344 155.465C76.124 155.324 75.6136 155.183 75.1033 155.042L74.7346 154.929C74.7063 154.929 74.7063 154.929 74.7063 154.957C74.1675 156.34 71.9559 159.614 62.6271 160.263C62.3719 160.291 62.1167 160.291 61.8615 160.291C56.8711 160.291 51.909 156.425 51.4553 156.058C52.0224 155.776 58.4023 152.587 65.7745 152.53C65.7745 152.53 65.8029 152.53 65.8029 152.502C65.8029 152.502 65.8029 152.474 65.7745 152.474C65.6327 152.418 65.491 152.389 65.3208 152.333C65.094 152.276 64.8672 152.192 64.6403 152.135C63.3076 151.74 61.975 151.26 60.6706 150.752C60.6706 150.752 60.6706 150.752 60.6423 150.752C59.6499 151.176 57.58 151.853 54.6878 151.853C50.5763 151.853 46.4082 150.47 42.3251 147.761C43.7428 147.112 45.4724 146.773 47.514 146.773C49.669 146.773 52.0224 147.14 54.5176 147.874C54.546 147.874 54.546 147.874 54.546 147.846C54.546 147.817 54.546 147.817 54.546 147.817C54.0356 147.507 53.5536 147.225 53.0999 146.943C52.0791 146.294 51.0583 145.503 50.0376 144.657H50.0092C49.0452 144.854 48.0811 144.939 47.0887 144.939C44.1681 144.939 39.9716 144.064 36.5974 139.944C37.6465 139.774 38.6106 139.69 39.5179 139.69C42.9205 139.69 45.1322 140.988 47.4856 142.343H47.514V142.314C46.5499 141.298 45.6709 140.282 44.9053 139.21C44.9053 139.21 44.9053 139.21 44.877 139.21C43.0623 139.125 36.8809 138.25 33.7619 130.885C37.1645 131.336 39.5463 132.86 43.4593 137.15H43.4876C43.4876 137.15 43.516 137.122 43.4876 137.122C42.5519 135.626 41.7296 133.989 40.964 132.267C40.964 132.267 40.964 132.239 40.9357 132.239C39.6881 131.647 33.932 128.514 32.089 122.136L32.0606 122.08C32.0606 122.023 32.0322 121.995 32.0322 121.938C31.8621 121.318 31.7203 120.668 31.6353 119.991C35.0662 122.136 37.4764 124.619 39.206 127.808C39.206 127.808 39.2344 127.837 39.2344 127.808C39.2344 127.808 39.2627 127.808 39.2627 127.78V127.752C38.9792 126.821 38.724 126.031 38.5255 125.24C38.327 124.478 38.1285 123.66 37.9301 122.7C37.2779 121.515 34.5842 116.068 35.6333 110.227C35.6333 110.17 35.6617 110.085 35.6617 110.029C35.6617 109.973 35.69 109.916 35.69 109.86V109.831C35.8885 108.872 36.2004 107.912 36.6257 106.981C38.9225 112.23 39.4329 116.915 38.2703 122.192C38.5539 123.237 38.8091 124.196 39.0642 125.071C39.0926 125.212 39.1493 125.325 39.1777 125.438C39.206 125.523 39.2344 125.607 39.2627 125.664L39.2911 125.692C39.2911 125.692 39.3194 125.692 39.3194 125.664C39.2627 125.156 39.2344 124.704 39.206 124.281V124.168C39.0642 121.374 39.5179 120.33 40.1701 118.241L40.9357 116.463L41.7013 118.157C43.8846 123.745 41.1625 129.361 40.8223 130.01V130.038C41.8997 132.634 43.1757 135.005 44.5651 137.065C44.9053 137.573 45.274 138.081 45.7276 138.674C45.7276 138.674 45.756 138.702 45.756 138.674C45.756 138.674 45.7843 138.645 45.756 138.645C42.9205 132.521 42.1833 129.53 43.0623 125.466L43.1757 124.958L43.516 125.325C49.6123 131.647 47.4289 139.52 47.1454 140.423V140.452C49.0452 142.597 51.2001 144.431 53.5536 145.898C53.8938 146.124 54.2341 146.322 54.6027 146.519H54.6311V146.491C53.4969 145.475 52.5044 144.516 51.6822 143.556C50.3211 141.919 49.4421 140.198 49.0168 137.94L48.9884 137.799V137.714C48.7049 136.106 48.6765 134.215 48.875 131.872C56.1055 136.698 57.0979 145.362 57.2397 147.93C57.2397 147.959 57.2397 147.959 57.2681 147.959C59.3947 148.975 61.7481 149.906 64.8672 150.922C65.3208 151.063 65.8029 151.204 66.2565 151.345C66.3983 151.402 66.5401 151.43 66.6819 151.486C66.7102 151.486 66.7102 151.486 66.7102 151.458V151.43C60.0185 146.265 55.4533 140.028 54.4609 134.807L54.2908 133.904L55.0564 134.271C66.8804 140.141 69.7442 149.737 70.3113 152.53C70.3113 152.53 70.3113 152.559 70.3396 152.559C70.85 152.7 71.3604 152.841 71.8424 152.982C73.3736 153.405 74.9615 153.857 76.521 154.308C76.5494 154.308 76.5494 154.308 76.5494 154.28V154.252C73.0901 151.543 70.5948 147.817 69.092 145.165C67.4474 142.23 66.6535 139.944 66.6252 139.915L66.37 139.182L67.0505 139.266C67.2206 139.323 71.644 141.693 75.4152 145.024C80.7175 149.708 82.0218 153.659 81.5114 155.635C81.5114 155.663 81.5115 155.663 81.5398 155.663L81.9651 155.776C84.2052 156.34 86.5019 156.933 88.7703 157.667C90.3015 158.288 91.8326 159.05 93.3921 160.066H93.4205C94.6114 159.36 95.8023 158.767 96.9932 158.288C99.2616 157.554 101.587 156.961 103.798 156.397L104.224 156.284L104.252 156.256C103.827 154.619 103.798 152.022 109.016 145.814C112.333 141.778 118.515 140.254 118.571 140.254L119.308 140.113L119.252 140.282L119.167 140.508C119.167 140.536 118.373 142.794 116.7 145.757C115.197 148.41 112.702 152.164 109.242 154.845C109.242 154.845 109.214 154.873 109.242 154.873C109.242 154.901 109.271 154.901 109.271 154.901C110.83 154.449 112.418 153.998 113.949 153.575C114.46 153.434 114.942 153.292 115.452 153.151C115.452 153.151 115.481 153.151 115.481 153.123C116.076 150.329 118.911 140.762 130.735 134.864L131.501 134.497L131.331 135.4C130.338 140.649 125.773 146.858 119.082 152.022C119.082 152.022 119.053 152.051 119.082 152.051C119.082 152.079 119.11 152.079 119.11 152.079C119.252 152.051 119.365 151.994 119.507 151.966C119.961 151.825 120.443 151.684 120.896 151.543C124.015 150.527 126.369 149.595 128.495 148.579L128.524 148.551C128.666 146.011 129.658 137.347 136.888 132.493C137.087 134.836 137.03 136.755 136.775 138.363V138.392L136.747 138.561L136.718 138.73V138.758C136.293 140.931 135.414 142.596 134.081 144.205C133.259 145.165 132.295 146.096 131.161 147.112V147.14C131.161 147.14 131.189 147.168 131.189 147.14C131.529 146.943 131.898 146.717 132.238 146.519C134.563 145.052 136.718 143.217 138.646 141.073V141.044C138.363 140.169 136.208 132.296 142.276 125.974L142.616 125.607L142.73 126.115C143.495 130.094 142.871 133.171 140.036 139.295V139.323H140.064C140.518 138.73 140.915 138.222 141.227 137.714C142.644 135.654 143.892 133.283 144.97 130.687V130.659C144.913 130.518 144.828 130.377 144.743 130.207C143.722 128.373 141.624 124.591 143.722 116.746L144.431 115.391L145.281 116.379C146.472 119.286 146.784 121.064 146.728 123.265V123.378V123.406V123.519C146.699 124.365 146.586 125.269 146.501 126.341C146.501 126.341 146.501 126.369 146.529 126.369C146.557 126.369 146.557 126.369 146.557 126.341C146.586 126.256 146.614 126.2 146.643 126.115C146.699 125.974 146.728 125.861 146.756 125.748C147.011 124.845 147.295 123.914 147.55 122.87C146.359 117.592 146.869 112.908 149.194 107.658C149.62 108.618 149.932 109.549 150.13 110.509V110.537L150.159 110.706C150.159 110.791 150.187 110.847 150.187 110.904C151.236 116.774 148.542 122.192 147.89 123.406C147.692 124.365 147.493 125.184 147.295 125.946C147.096 126.708 146.841 127.526 146.557 128.458C146.557 128.458 146.557 128.458 146.557 128.486C146.557 128.486 146.557 128.514 146.586 128.514C146.614 128.514 146.614 128.514 146.614 128.514C148.344 125.297 150.754 122.813 154.185 120.668C154.27 121.261 154.157 121.938 153.986 122.531Z" fill="#1D1C1A"/>
<path d="M90.4496 117.46C90.3968 117.46 90.344 117.519 90.344 117.577V122.39C90.344 122.449 90.3968 122.507 90.4496 122.507H92.7723C92.8251 122.507 92.8779 122.449 92.8779 122.39V117.577C92.8779 117.519 92.8251 117.46 92.7723 117.46H90.4496ZM90.7135 122.067V117.871H92.482V122.067H90.7135Z" fill="#1D1C1A"/>
<path d="M91.2001 118.182C91.1343 118.182 91.0685 118.243 91.0685 118.305V121.303C91.0685 121.365 91.1343 121.426 91.2001 121.426H92.3848C92.4506 121.426 92.5164 121.365 92.5164 121.303V118.305C92.5164 118.243 92.4506 118.182 92.3848 118.182H91.2001ZM91.5292 120.963V118.614H92.0228V120.963H91.5292Z" fill="#1D1C1A"/>
<path d="M94.8101 117.46C94.7498 117.46 94.6895 117.519 94.6895 117.577V122.39C94.6895 122.449 94.7498 122.507 94.8101 122.507H97.4647C97.525 122.507 97.5854 122.449 97.5854 122.39V117.577C97.5854 117.519 97.525 117.46 97.4647 117.46H94.8101ZM95.1118 122.067V117.871H97.1329V122.067H95.1118Z" fill="#1D1C1A"/>
<path d="M95.8739 118.182C95.8245 118.182 95.7751 118.243 95.7751 118.305V121.303C95.7751 121.365 95.8245 121.426 95.8739 121.426H96.7624C96.8117 121.426 96.8611 121.365 96.8611 121.303V118.305C96.8611 118.243 96.8117 118.182 96.7624 118.182H95.8739ZM96.1207 120.963V118.614H96.4909V120.963H96.1207Z" fill="#1D1C1A"/>
<path d="M100.224 117.46C100.172 117.46 100.119 117.519 100.119 117.577V122.39C100.119 122.449 100.172 122.507 100.224 122.507H102.547C102.6 122.507 102.653 122.449 102.653 122.39V117.577C102.653 117.519 102.6 117.46 102.547 117.46H100.224ZM100.488 122.067V117.871H102.257V122.067H100.488Z" fill="#1D1C1A"/>
<path d="M100.973 118.182C100.907 118.182 100.842 118.243 100.842 118.305V121.303C100.842 121.365 100.907 121.426 100.973 121.426H102.158C102.224 121.426 102.29 121.365 102.29 121.303V118.305C102.29 118.243 102.224 118.182 102.158 118.182H100.973ZM101.302 120.963V118.614H101.796V120.963H101.302Z" fill="#1D1C1A"/>
<path d="M107.599 117.46H104.945C104.884 117.46 104.824 117.519 104.824 117.577V122.39C104.824 122.449 104.884 122.507 104.945 122.507H107.599C107.66 122.507 107.72 122.449 107.72 122.39V117.577C107.72 117.489 107.66 117.46 107.599 117.46ZM105.276 122.067V117.871H107.298V122.067H105.276Z" fill="#1D1C1A"/>
<path d="M106.009 118.182C105.959 118.182 105.91 118.243 105.91 118.305V121.303C105.91 121.365 105.959 121.426 106.009 121.426H106.897C106.947 121.426 106.996 121.365 106.996 121.303V118.305C106.996 118.243 106.947 118.182 106.897 118.182H106.009ZM106.255 120.963V118.614H106.626V120.963H106.255Z" fill="#1D1C1A"/>
<path d="M94.8101 123.95C94.7498 123.95 94.6895 124.009 94.6895 124.068V128.88C94.6895 128.939 94.7498 128.998 94.8101 128.998H97.4647C97.525 128.998 97.5854 128.939 97.5854 128.88V124.068C97.5854 124.009 97.525 123.95 97.4647 123.95H94.8101ZM95.1118 128.587V124.39H97.1329V128.587H95.1118Z" fill="#1D1C1A"/>
<path d="M95.8739 125.031C95.8245 125.031 95.7751 125.086 95.7751 125.141V127.806C95.7751 127.861 95.8245 127.916 95.8739 127.916H96.7624C96.8117 127.916 96.8611 127.861 96.8611 127.806V125.141C96.8611 125.086 96.8117 125.031 96.7624 125.031H95.8739ZM96.1207 127.503V125.416H96.4909V127.503H96.1207Z" fill="#1D1C1A"/>
<path d="M100.224 123.95C100.172 123.95 100.119 124.009 100.119 124.068V128.88C100.119 128.939 100.172 128.998 100.224 128.998H102.547C102.6 128.998 102.653 128.939 102.653 128.88V124.068C102.653 124.009 102.6 123.95 102.547 123.95H100.224ZM100.488 128.587V124.39H102.257V128.587H100.488Z" fill="#1D1C1A"/>
<path d="M100.973 125.031C100.907 125.031 100.842 125.086 100.842 125.141V127.806C100.842 127.861 100.907 127.916 100.973 127.916H102.158C102.224 127.916 102.29 127.861 102.29 127.806V125.141C102.29 125.086 102.224 125.031 102.158 125.031H100.973ZM101.302 127.503V125.416H101.796V127.503H101.302Z" fill="#1D1C1A"/>
<path d="M104.945 123.95C104.884 123.95 104.824 124.009 104.824 124.068V128.88C104.824 128.939 104.884 128.998 104.945 128.998H107.599C107.66 128.998 107.72 128.939 107.72 128.88V124.068C107.72 124.009 107.66 123.95 107.599 123.95H104.945ZM105.276 128.587V124.39H107.298V128.587H105.276Z" fill="#1D1C1A"/>
<path d="M106.009 125.031C105.959 125.031 105.91 125.086 105.91 125.141V127.806C105.91 127.861 105.959 127.916 106.009 127.916H106.897C106.947 127.916 106.996 127.861 106.996 127.806V125.141C106.996 125.086 106.947 125.031 106.897 125.031H106.009ZM106.255 127.503V125.416H106.626V127.503H106.255Z" fill="#1D1C1A"/>
<path d="M112.891 123.95C112.839 123.95 112.787 124.01 112.787 124.07V128.157C112.787 128.217 112.839 128.277 112.891 128.277H113.77C113.822 128.277 113.873 128.217 113.873 128.157V124.07C113.873 124.01 113.822 123.95 113.77 123.95H112.891ZM113.149 127.859V124.368H113.485V127.859H113.149Z" fill="#1D1C1A"/>
<path d="M114.373 123.95C114.304 123.95 114.235 124.01 114.235 124.07V128.157C114.235 128.217 114.304 128.277 114.373 128.277H115.545C115.614 128.277 115.683 128.217 115.683 128.157V124.07C115.683 124.01 115.614 123.95 115.545 123.95H114.373ZM114.717 127.859V124.368H115.166V127.859H114.717Z" fill="#1D1C1A"/>
<path d="M116.149 123.95C116.097 123.95 116.045 124.01 116.045 124.07V128.157C116.045 128.217 116.097 128.277 116.149 128.277H117.028C117.08 128.277 117.131 128.217 117.131 128.157V124.07C117.131 124.01 117.08 123.95 117.028 123.95H116.149ZM116.407 127.859V124.368H116.743V127.859H116.407Z" fill="#1D1C1A"/>
<path d="M112.891 118.542C112.839 118.542 112.787 118.597 112.787 118.651V122.398C112.787 122.453 112.839 122.508 112.891 122.508H113.77C113.822 122.508 113.873 122.453 113.873 122.398V118.651C113.873 118.597 113.822 118.542 113.77 118.542H112.891ZM113.149 122.125V118.925H113.485V122.125H113.149Z" fill="#1D1C1A"/>
<path d="M114.373 118.542C114.304 118.542 114.235 118.597 114.235 118.651V122.398C114.235 122.453 114.304 122.508 114.373 122.508H115.545C115.614 122.508 115.683 122.453 115.683 122.398V118.651C115.683 118.597 115.614 118.542 115.545 118.542H114.373ZM114.717 122.125V118.925H115.166V122.125H114.717Z" fill="#1D1C1A"/>
<path d="M114.011 115.297H115.183C115.252 115.297 115.321 115.238 115.321 115.18V112.891C115.321 112.832 115.252 112.773 115.183 112.773H114.011C113.942 112.773 113.873 112.832 113.873 112.891V115.18C113.873 115.238 113.942 115.297 114.011 115.297ZM114.839 113.214V114.886H114.356V113.214H114.839Z" fill="#1D1C1A"/>
<path d="M116.149 118.542C116.097 118.542 116.045 118.597 116.045 118.651V122.398C116.045 122.453 116.097 122.508 116.149 122.508H117.028C117.08 122.508 117.131 122.453 117.131 122.398V118.651C117.131 118.597 117.08 118.542 117.028 118.542H116.149ZM116.407 122.125V118.925H116.743V122.125H116.407Z" fill="#1D1C1A"/>
<path d="M136.305 116.175C136.305 116.175 134.605 112.453 134.605 112.481L134.406 112.424H116.749L115.53 110.309C115.502 110.281 94.1037 110.338 94.1037 110.338V110.084H94.2737C94.3304 110.084 94.3587 110.027 94.3587 109.999C94.4154 109.999 94.4438 109.971 94.4438 109.914V108.617H95.039C95.0956 108.617 95.124 108.589 95.124 108.561C95.1523 108.533 95.124 108.476 95.0956 108.448L90.6743 104.895C90.6459 104.866 90.5892 104.866 90.5326 104.895H84.524V101.059C84.4957 100.805 84.2973 99.5643 83.362 98.5209C82.7385 97.8158 81.5764 97.1672 81.2647 96.9697V95.8699C81.2647 95.8135 81.208 95.7571 81.1513 95.7571H80.4144V94.9674C80.4144 94.911 80.3577 94.8546 80.3011 94.8546H80.1877V92.26H80.216C80.2444 92.2318 80.2444 92.2036 80.216 92.1754L80.1593 92.0344C80.1027 91.8652 79.7625 90.9345 79.5075 90.6243C79.2807 90.3423 78.9406 90.0885 78.3171 90.0321V87.1554C78.3171 87.099 78.2604 87.0426 78.2037 87.0426H78.0053C77.9487 87.0426 77.892 87.099 77.892 87.1554V90.0321C77.2401 90.0885 76.7299 90.4551 76.5599 90.7089C76.3898 90.9627 76.1064 91.7524 76.0214 92.0062L75.9647 92.119C75.9647 92.1472 75.9647 92.1754 75.9647 92.2036C75.9647 92.2036 75.9647 92.2036 75.993 92.2036V94.7982H75.823C75.7663 94.7982 75.7096 94.8546 75.7096 94.911V95.7007H74.916C74.8594 95.7007 74.8027 95.7571 74.8027 95.8135V96.9133C74.4909 97.0544 73.5273 97.5056 72.8471 98.1824C71.7701 99.2259 71.4866 100.946 71.4583 101.031V104.838H71.3166V98.4362C71.3166 98.3798 71.2599 98.3234 71.2032 98.3234H70.7781V97.844H70.9481C71.0048 97.844 71.0615 97.7876 71.0615 97.7312V96.4339C71.0615 96.3775 71.0048 96.3211 70.9481 96.3211H69.8145V89.5808C69.8145 89.5244 69.7578 89.468 69.7011 89.468H68.7091V87.3247C68.7091 87.2965 68.7091 87.2683 68.6808 87.2401L68.0573 86.7324V84.8147H68.7375C68.7941 84.8147 68.8225 84.7865 68.8225 84.7583C68.8508 84.7301 68.8225 84.6737 68.7941 84.6455L67.9439 83.743L67.7738 82.9815C67.7738 82.9533 67.7455 82.9251 67.7455 82.9251L67.7171 82.8969C67.5188 82.7559 67.0653 82.4739 66.7252 82.3611V79.7101C66.7252 79.6537 66.6685 79.5973 66.6118 79.5973H66.4134C66.3567 79.5973 66.3 79.6537 66.3 79.7101V82.3611C65.9032 82.4739 65.3364 82.8405 65.2797 82.8969L65.2514 82.9251C65.223 82.9533 65.223 82.9533 65.1947 83.0098L65.053 83.9686L64.146 84.6455C64.1177 84.6737 64.0893 84.7301 64.1177 84.7583C64.1177 84.7865 64.1744 84.8429 64.2311 84.8429H64.8829V86.817L64.2594 87.2401C64.2311 87.2683 64.2027 87.2965 64.2027 87.3247V89.609H63.6359C63.5792 89.609 63.5225 89.6654 63.5225 89.7218V96.4621H62.7289C62.6722 96.4621 62.6156 96.5185 62.6156 96.5749V97.8722C62.6156 97.9286 62.6722 97.985 62.7289 97.985H62.8423V98.4645H62.5872C62.5305 98.4645 62.4739 98.5209 62.4739 98.5773V105.656C62.4455 105.656 62.4172 105.656 62.4172 105.684L60.5466 107.348V96.4339C60.5466 96.3775 60.4899 96.3211 60.4332 96.3211H60.0081V95.8135H60.1781C60.2348 95.8135 60.2915 95.7571 60.2915 95.7007V94.347C60.2915 94.2906 60.2348 94.2342 60.1781 94.2342H58.9878V87.2119C58.9878 87.1554 58.9311 87.099 58.8744 87.099H57.8257V84.8711C57.8257 84.8429 57.8257 84.8147 57.7974 84.7865L57.1455 84.2506V82.1355H57.8541C57.8824 82.1355 57.9391 82.1073 57.9391 82.0791C57.9675 82.0509 57.9391 81.9945 57.9108 81.9663L57.0038 81.0356L56.8338 80.246C56.8338 80.2178 56.8054 80.1896 56.7771 80.1896L56.7487 80.1613C56.6354 80.0767 56.0969 79.7383 55.7001 79.6255V76.8335C55.7001 76.7771 55.6434 76.7207 55.5867 76.7207H55.3883C55.3316 76.7207 55.2749 76.7771 55.2749 76.8335V79.5973C54.9348 79.6819 54.4814 79.9639 54.1979 80.1613L54.1696 80.1896C54.1413 80.2178 54.1413 80.2178 54.1129 80.246L53.9712 81.233L53.0359 81.9381C53.0076 81.9663 52.9792 82.0227 53.0076 82.0509C53.0076 82.1073 53.0643 82.1355 53.1209 82.1355H53.7728V84.1942L53.1209 84.6173C53.0926 84.6455 53.0643 84.6737 53.0643 84.7019V87.0708H52.4691C52.4124 87.0708 52.3557 87.1272 52.3557 87.1836V94.206H51.5054C51.4488 94.206 51.3921 94.2624 51.3921 94.3188V95.6725C51.3921 95.7289 51.4488 95.7853 51.5054 95.7853H51.6188V96.2929H51.3637C51.307 96.2929 51.2504 96.3493 51.2504 96.4057V110.507V110.591V123C51.2504 123.057 51.307 123.113 51.3637 123.113H59.4412V128.218C59.4412 128.274 59.4979 128.33 59.5546 128.33H61.0284H61.1134H81.0946C81.1513 128.33 81.208 128.274 81.208 128.218V125.228H81.4064V128.218C81.4064 128.274 81.4631 128.33 81.5198 128.33H87.3299V129.966C87.3299 130.023 87.3866 130.079 87.4433 130.079H118.563H118.648H119.81C119.81 130.079 119.838 130.079 119.867 130.079L127.802 126.215H128.483C128.539 126.215 128.596 126.159 128.596 126.102V125.82L130.041 125.115V126.102C130.041 126.159 130.098 126.215 130.155 126.215H130.835C130.892 126.215 130.948 126.159 130.948 126.102V124.58L135.993 122.098C136.022 122.07 136.05 122.041 136.05 122.013V116.288C136.05 116.288 136.078 116.288 136.078 116.26C136.333 116.232 136.333 116.204 136.305 116.175ZM130.75 125.708H130.665V124.805L130.75 124.749V125.708ZM130.75 124.326L130.665 124.382V123.705H130.75V124.326ZM131.062 123.31H130.382C130.325 123.31 130.268 123.367 130.268 123.423V124.58L128.823 125.285V123.423C128.823 123.367 128.766 123.31 128.709 123.31H128.029C127.973 123.31 127.916 123.367 127.916 123.423V125.708L127.406 125.961V117.416C128.766 117.416 130.297 117.416 132.11 117.416V123.677L131.175 124.128V123.423C131.147 123.367 131.118 123.31 131.062 123.31ZM128.426 125.482L128.313 125.538V123.733H128.426V125.482ZM118.988 129.599V126.102H119.612C119.668 126.102 119.725 126.046 119.725 125.99V123.395C119.725 123.339 119.668 123.282 119.612 123.282H118.988V120.744H119.612C119.668 120.744 119.725 120.688 119.725 120.631V118.093C119.725 118.037 119.668 117.98 119.612 117.98H118.988V117.388C119.47 117.416 120.689 117.416 123.806 117.416V127.71L119.98 129.571H118.988V129.599ZM82.0583 125.172H87.585V127.851H82.0583V125.172ZM74.0941 124.777V124.467H87.585V124.777H74.0941ZM51.9022 96.6313H52.6675V108.504C52.6675 108.561 52.7242 108.617 52.7808 108.617H59.4412C59.4979 108.617 59.5546 108.561 59.5546 108.504V106.248H60.3198V110.338H51.9306V96.6313H51.9022ZM60.0364 94.5444V95.3058H59.9514H52.0723V94.5444H60.0364ZM53.0076 87.4375H55.1616V94.1777H53.0076V87.4375ZM55.7001 79.9075C55.8418 79.9075 56.2953 80.1613 56.6637 80.387L56.8338 81.1484C56.8338 81.1766 56.8338 81.1766 56.8621 81.2048L57.3439 81.7125H57.2022H57.1172H54.1979L54.5381 81.4586C54.5664 81.4304 54.5664 81.4304 54.5664 81.4022L54.7081 80.4152C55.1049 80.1331 55.5584 79.9075 55.7001 79.9075ZM57.599 87.0426H56.0685V82.0791H56.9188V84.3352C56.9188 84.3634 56.9188 84.3917 56.9471 84.4199L57.599 84.9557V87.0426ZM57.9958 87.4375V94.1777H56.7487V87.4375H57.9958ZM58.761 93.3881H58.3926V87.4375H58.761V93.3881ZM56.3236 87.4375V93.3881H55.53V87.4375H56.3236ZM56.3236 93.7829V94.1495H55.53V93.7829H56.3236ZM58.3926 94.1495V93.7829H58.761V94.1495H58.3926ZM54.3397 84.3916C54.368 84.3634 54.3963 84.3352 54.3963 84.307V82.0791H55.6717V87.0426H53.6878V84.8147L54.3397 84.3916ZM59.753 95.7007V96.2083H59.3279H59.2428H56.7487H55.0482H52.9509H52.8659H52.2707V95.7007H59.753ZM66.5268 105.966L63.3808 108.42C63.3525 108.448 63.3241 108.504 63.3525 108.533C63.3525 108.561 63.4091 108.589 63.4375 108.589H64.0327V108.702H63.6926H60.66V107.771L62.7289 105.938H66.5268V105.966ZM63.0407 98.7747H63.7492V105.571H63.0407V98.7747ZM70.8631 96.8005V97.5338H70.7781H63.2107V96.8005H70.8631ZM64.7696 89.9474V95.6443H64.1177V89.9474H64.7696ZM66.6968 82.7277C66.8385 82.7277 67.2637 82.9533 67.6038 83.179L67.7738 83.9122C67.7738 83.9404 67.7738 83.9404 67.8022 83.9686L68.2556 84.4481H68.1423H68.0573H65.2797L65.5915 84.2224C65.6198 84.1942 65.6198 84.1942 65.6198 84.166L65.7615 83.2354C66.13 82.9533 66.5551 82.7277 66.6968 82.7277ZM68.5107 89.5526H67.0653V84.8147H67.8589V86.958C67.8589 86.9862 67.8589 87.0144 67.8872 87.0426L68.5107 87.5503V89.5526ZM68.8792 89.9474V96.4057H67.6888V89.9474H68.8792V89.9474ZM69.6161 95.6443H69.276V89.9474H69.6161V95.6443ZM65.1664 89.9474H66.1583V96.4057H65.1664V89.9474ZM67.292 89.9474V95.6443H66.5268V89.9474H67.292ZM66.5268 96.0391H67.292V96.3775H66.5268V96.0391ZM69.276 96.4057V96.0673H69.6161V96.4057H69.276ZM65.4498 86.9298V84.8147H66.6685V89.5526H64.7696V87.4375L65.3931 87.0144C65.4214 87.0144 65.4498 86.958 65.4498 86.9298ZM64.7696 96.0391V96.3775H64.1177V96.0391H64.7696ZM70.5797 97.9004V98.3798H70.1829H70.0979H67.6888H66.045H64.0327H63.9476H63.3808V97.9004H70.5797ZM71.0899 104.866H70.3813V98.7747H71.0899V104.866ZM73.6973 105.261L76.2481 107.32C76.2481 107.348 76.2481 107.376 76.2765 107.404C76.3048 107.433 76.3332 107.433 76.3615 107.433H76.3898L77.3535 108.222H72.1952L68.5391 105.289H73.6973V105.261ZM72.0251 101.115C72.0251 101.115 72.0251 101.087 72.0251 101.115V101.426V101.115ZM75.2278 97.28H81.0946C81.3214 97.3928 82.5684 98.0978 83.1636 98.7747C83.7871 99.4797 84.0422 100.326 84.1556 100.777C83.9572 100.467 83.4754 99.931 82.6251 99.931C81.4347 99.931 80.9813 101.003 80.9813 101.031V101.059V101.426H80.2727V101.059C80.2727 101.031 80.2444 101.003 80.2444 101.003C80.2444 101.003 79.6775 99.931 78.2604 99.931C76.8433 99.931 76.3332 100.946 76.3048 101.031C76.3048 101.031 76.3048 101.059 76.3048 101.087V101.454H75.4262V101.087V101.059V101.031C75.3412 100.862 74.8594 99.9592 73.754 99.9592C72.6203 99.9592 72.1669 100.89 72.1385 101.003C72.2235 100.608 72.5636 99.3105 73.3572 98.5491C73.9241 97.8722 74.9444 97.421 75.2278 97.28ZM80.9529 96.1801V96.9133H75.3695V96.1801H80.9529ZM78.147 90.4269C78.1754 90.4269 78.1754 90.4269 78.2037 90.4269C78.7989 90.4269 79.054 90.6243 79.3091 90.9063C79.4224 91.0473 79.5925 91.4139 79.7909 91.9216H76.6166C76.7583 91.5268 76.9283 91.1037 77.0134 90.9627C77.1551 90.7653 77.5802 90.4269 78.147 90.4269ZM80.1027 95.7853H79.3091V92.3164H79.8759V95.1648C79.8759 95.2212 79.9326 95.2776 79.9893 95.2776H80.1027V95.7853ZM78.9123 95.7853V92.3164V95.7853ZM76.2765 95.2776H76.4465C76.5032 95.2776 76.5599 95.2212 76.5599 95.1648V92.3164H78.5438V95.7853H76.3048V95.2776H76.2765ZM90.1074 105.261L86.3663 108.222H79.139L80.131 107.433H80.1593C80.216 107.433 80.2444 107.376 80.2444 107.348L82.8802 105.289H90.1074V105.261ZM119.243 125.708V123.705H119.328V125.708H119.243ZM86.6213 109.717V109.125H94.0753V109.717H86.6213ZM118.45 116.119H117.514L114.935 111.522L115.389 110.873L118.45 116.119ZM132.961 115.921L134.52 113.073L135.795 115.921H132.961ZM68.0289 104.866C68.0006 104.838 67.9439 104.838 67.8872 104.866L67.8022 104.951V104.302H69.9845V104.866H68.0289ZM77.9203 108.589H78.1754H78.2888H78.3738V108.702H72.3086V108.589H72.3653H77.9203ZM75.3695 106.107V101.82H76.2481V106.812L75.3695 106.107ZM74.9727 105.797L73.8674 104.895C73.839 104.895 73.839 104.866 73.8107 104.866H72.4219V101.115C72.4786 100.974 72.8471 100.326 73.6973 100.326C74.5193 100.326 74.916 100.974 75.0011 101.144V105.797H74.9727ZM83.9005 104.866H82.7668C82.7385 104.866 82.7101 104.866 82.7101 104.895L81.3497 105.966V101.115C81.4347 100.946 81.8032 100.326 82.6251 100.326C83.4187 100.326 83.8155 100.946 83.9288 101.144V104.866H83.9005ZM80.9529 106.276L80.2444 106.84V101.82H80.9529V106.276ZM79.8476 107.038H76.6449V101.115C76.7583 100.946 77.1834 100.298 78.2321 100.298C79.2524 100.298 79.7342 100.918 79.8476 101.115V107.038V107.038ZM79.4791 107.433L78.4872 108.222H77.977L77.0134 107.433H79.4791ZM86.1679 108.589H86.2529V108.702H78.7706V108.589H86.1679ZM89.3705 113.722L87.4999 116.345C87.4716 116.373 87.4716 116.429 87.4999 116.457C87.4999 116.486 87.5566 116.486 87.585 116.514V118.121H76.3332L73.8957 113.722H89.3705V113.722ZM110.429 117.078V118.008H108.558V117.078H110.429ZM117.089 116.119H111.732L114.737 111.889L117.089 116.119ZM118.62 116.514V116.683H111.534V116.514H118.62ZM111.137 116.514V116.683H87.9818V116.514H111.137ZM61.0567 118.121L73.4423 113.778L75.8513 118.121H61.0567ZM64.4578 110.084H65.5915V116.119L64.4578 116.514V110.084ZM85.6294 110.732H86.2246V113.327H85.6294V110.732ZM85.2326 113.327H81.9732C82.0299 113.327 82.0583 113.271 82.0583 113.242V111.268C82.0583 111.212 82.0016 111.155 81.9449 111.155H80.6128C80.5561 111.155 80.4994 111.212 80.4994 111.268V113.242C80.4994 113.299 80.5561 113.327 80.5845 113.327H78.7422V110.084H85.2326V113.327ZM80.8962 112.932V111.55H81.6615V112.932H80.8962ZM78.3454 113.327H76.9C76.9567 113.327 76.985 113.271 76.985 113.242V111.099C76.985 111.043 76.9567 111.014 76.9283 110.986L76.8717 110.958C76.8717 110.958 76.3332 110.761 75.8513 110.761C75.2845 110.761 74.8027 110.958 74.8027 110.958L74.746 110.986C74.7176 111.014 74.6893 111.043 74.6893 111.071V113.214C74.6893 113.271 74.746 113.299 74.7743 113.299H73.5556H73.5273L73.3572 113.355V110.055H78.3738V113.327H78.3454ZM75.0861 112.932V111.268C75.2562 111.212 75.5396 111.155 75.8513 111.155C76.1348 111.155 76.4465 111.24 76.6166 111.296V112.96H75.0861V112.932ZM73.3289 109.717V109.125H78.3454V109.717H73.3289ZM72.9321 109.717H72.2802V109.125H72.9321V109.717ZM72.9321 110.084V113.524L72.2802 113.75V110.084H72.9321ZM71.9118 113.891L71.4866 114.032V110.084H71.9118V113.891ZM71.0899 114.173L71.0615 110.084H71.0899V114.173ZM70.6647 114.342L65.9883 115.978V110.112H70.6647V114.342ZM86.2246 110.338H85.6294V110.084H86.2246V110.338ZM75.1995 118.516V123.169L74.4059 123.705V118.544H75.1995V118.516ZM76.9567 122.013C76.9283 122.013 76.9283 122.013 76.9 122.013L75.5963 122.887V118.488H87.585V121.985H76.9567V122.013ZM86.6213 113.327V110.732H87.585V113.327H86.6213ZM86.6213 110.338V110.084H87.585V110.338H86.6213ZM86.2246 109.717H78.7422V109.125H86.2246V109.717ZM71.9118 108.702H64.4578V108.589H71.9118V108.702ZM71.9118 109.097V109.689H64.4578V109.097H71.9118ZM64.061 109.717H63.9193V109.125H64.061V109.717ZM63.5225 109.717H60.6883V109.125H63.5225V109.717ZM60.6883 110.45V110.112H63.7209H63.8059H64.0327V115.611H60.66V110.563V110.45H60.6883ZM64.061 115.978V116.655L60.6883 117.839V116.006H64.061V115.978ZM77.0417 122.408H87.585V124.072H74.5476L77.0417 122.408ZM111.251 117.585C111.194 117.585 111.137 117.642 111.137 117.698V118.008H110.826V117.078H118.591V117.585H111.251ZM64.2877 108.222L67.9439 105.346L71.515 108.222H64.2877ZM65.9599 103.907H64.1744V98.7747H65.9599V103.907ZM65.9599 104.302V105.543H64.1744V104.302H65.9599ZM66.3567 98.7747H66.6685V105.571H66.3567V98.7747ZM67.8022 103.907V98.7747H69.9845V103.907H67.8022ZM67.4054 105.261L67.0936 105.515V98.7747H67.4054V105.261ZM55.53 110.732H56.0118V110.958H55.53V110.732ZM51.9022 110.732H55.1332V112.65H51.7605C51.7038 112.65 51.6472 112.706 51.6472 112.763V112.96C51.6472 113.017 51.7038 113.073 51.7605 113.073H55.1332V122.69H51.9022V110.732ZM55.53 111.353H56.0118V122.662H55.53V111.353ZM56.4086 110.732H56.8338V122.662H56.4086V110.732ZM60.0931 118.516H61.1701V127.851H60.0931V118.516ZM61.5669 118.516H72.507V127.851H61.5669V118.516ZM72.9038 118.516H74.0091V123.959L73.5273 124.269C73.4989 124.297 73.4706 124.354 73.4706 124.382C73.4706 124.41 73.5273 124.467 73.584 124.467H73.6973V127.879H72.9038V118.516V118.516ZM74.0941 125.172H75.1995V127.851H74.0941V125.172ZM75.5963 125.172H76.7016V127.851H75.5963V125.172ZM87.9818 117.078H89.5689L89.0588 118.234V118.262V129.599H87.9818V117.078ZM89.4272 118.319L89.9657 117.078H108.161V129.599H89.3989V118.319H89.4272ZM108.586 118.375H110.457V129.571H108.586V118.375ZM110.826 118.375H111.421C111.477 118.375 111.534 118.319 111.534 118.262V117.952H111.903V129.571H110.854V118.375H110.826ZM112.299 117.952H118.62V129.571H112.299V117.952ZM119.243 120.406V118.375H119.328V120.377H119.243V120.406ZM124.203 117.444C125.025 117.444 125.932 117.444 127.009 117.444V126.159L124.203 127.513V117.444ZM132.479 117.416C132.621 117.416 132.791 117.416 132.932 117.416V123.254L132.479 123.48V117.416ZM133.329 117.416C134.123 117.416 134.973 117.416 135.88 117.416V121.844L133.329 123.085V117.416ZM118.988 117.021V116.486C119.016 116.486 119.045 116.486 119.045 116.457C119.073 116.429 119.073 116.373 119.045 116.345L119.016 116.288H132.451H132.621H135.88V116.993C128.624 117.05 120.263 117.05 118.988 117.021ZM132.507 115.921H118.79L116.976 112.819H134.179L132.507 115.921ZM111.222 116.119H88.1518L91.978 110.732H115.049L111.222 116.119ZM91.808 110.338C91.7796 110.338 91.7513 110.338 91.7229 110.394L89.6256 113.327H87.9534V110.084H93.6785V110.338H91.808V110.338ZM86.6213 108.702V108.589H94.0753V108.702H86.6213ZM94.2454 108.222H86.9898L90.6743 105.346L94.2454 108.222ZM72.0251 101.82V103.061V101.82ZM53.0643 102.385H54.9348V108.222H53.0643V102.385ZM59.1578 101.99H56.8621V96.6313H59.1578V101.99ZM56.4653 105.853H56.0969V96.6313H56.4653V105.853ZM55.7001 105.853H55.36V96.6313H55.7284V105.853H55.7001ZM54.9632 101.99H53.0926V96.6313H54.9632V101.99ZM55.36 106.248H55.7284V108.222H55.36V106.248ZM56.0969 106.248H56.4653V108.222H56.0969V106.248ZM56.8338 102.385H59.1295V108.222H56.8338V102.385ZM60.2915 105.853H59.5263V96.6313H60.2915V105.853ZM57.2306 110.732H60.2915V117.952L59.2995 118.29C59.2428 118.319 59.2145 118.347 59.2428 118.403C59.2428 118.46 59.2995 118.488 59.3562 118.488H59.6963V122.634H57.2306V110.732V110.732ZM81.0663 127.851H77.07V125.172H81.0663V127.851Z" fill="#1D1C1A"/>
<path d="M120.163 117.821C120.095 117.821 120.028 117.879 120.028 117.937V120.59C120.028 120.648 120.095 120.706 120.163 120.706H120.978C121.046 120.706 121.114 120.648 121.114 120.59V117.937C121.114 117.879 121.046 117.821 120.978 117.821H120.163ZM120.503 120.302V118.225H120.605V120.273H120.503V120.302Z" fill="#1D1C1A"/>
<path d="M121.249 117.821C121.181 117.821 121.114 117.879 121.114 117.937V120.59C121.114 120.648 121.181 120.706 121.249 120.706H122.064C122.132 120.706 122.2 120.648 122.2 120.59V117.937C122.2 117.879 122.132 117.821 122.064 117.821H121.249ZM121.589 120.302V118.225H121.69V120.273H121.589V120.302Z" fill="#1D1C1A"/>
<path d="M123.149 117.821H122.335C122.267 117.821 122.199 117.879 122.199 117.937V120.59C122.199 120.648 122.267 120.706 122.335 120.706H123.149C123.217 120.706 123.285 120.648 123.285 120.59V117.937C123.285 117.879 123.217 117.821 123.149 117.821ZM122.674 120.302V118.225H122.776V120.273H122.674V120.302Z" fill="#1D1C1A"/>
<path d="M120.163 123.229C120.095 123.229 120.028 123.287 120.028 123.345V125.998C120.028 126.056 120.095 126.114 120.163 126.114H120.978C121.046 126.114 121.114 126.056 121.114 125.998V123.345C121.114 123.287 121.046 123.229 120.978 123.229H120.163ZM120.503 125.681V123.633H120.605V125.681H120.503Z" fill="#1D1C1A"/>
<path d="M121.249 123.229C121.181 123.229 121.114 123.287 121.114 123.345V125.998C121.114 126.056 121.181 126.114 121.249 126.114H122.064C122.132 126.114 122.2 126.056 122.2 125.998V123.345C122.2 123.287 122.132 123.229 122.064 123.229H121.249ZM121.589 125.681V123.633H121.69V125.681H121.589Z" fill="#1D1C1A"/>
<path d="M122.335 123.229C122.267 123.229 122.199 123.287 122.199 123.345V125.998C122.199 126.056 122.267 126.114 122.335 126.114H123.149C123.217 126.114 123.285 126.056 123.285 125.998V123.345C123.285 123.287 123.217 123.229 123.149 123.229H122.335ZM122.674 125.681V123.633H122.776V125.681H122.674Z" fill="#1D1C1A"/>
<path d="M124.507 117.821C124.439 117.821 124.371 117.879 124.371 117.937V120.59C124.371 120.648 124.439 120.706 124.507 120.706H125.321C125.389 120.706 125.457 120.648 125.457 120.59V117.937C125.457 117.879 125.389 117.821 125.321 117.821H124.507ZM124.846 120.302V118.225H124.948V120.273H124.846V120.302Z" fill="#1D1C1A"/>
<path d="M126.408 117.821H125.593C125.525 117.821 125.457 117.879 125.457 117.937V120.59C125.457 120.648 125.525 120.706 125.593 120.706H126.408C126.475 120.706 126.543 120.648 126.543 120.59V117.937C126.509 117.879 126.475 117.821 126.408 117.821ZM125.932 120.302V118.225H126.034V120.273H125.932V120.302Z" fill="#1D1C1A"/>
<path d="M124.507 123.229C124.439 123.229 124.371 123.287 124.371 123.345V125.998C124.371 126.056 124.439 126.114 124.507 126.114H125.321C125.389 126.114 125.457 126.056 125.457 125.998V123.345C125.457 123.287 125.389 123.229 125.321 123.229H124.507ZM124.846 125.681V123.633H124.948V125.681H124.846Z" fill="#1D1C1A"/>
<path d="M125.593 123.229C125.525 123.229 125.457 123.287 125.457 123.345V125.998C125.457 126.056 125.525 126.114 125.593 126.114H126.408C126.475 126.114 126.543 126.056 126.543 125.998V123.345C126.543 123.287 126.475 123.229 126.408 123.229H125.593ZM125.932 125.681V123.633H126.034V125.681H125.932Z" fill="#1D1C1A"/>
<path d="M128.083 117.821C128.037 117.821 127.992 117.879 127.992 117.937V120.59C127.992 120.648 128.037 120.706 128.083 120.706H128.626C128.671 120.706 128.716 120.648 128.716 120.59V117.937C128.716 117.879 128.671 117.821 128.626 117.821H128.083ZM128.309 120.302V118.225H128.399V120.273H128.309V120.302Z" fill="#1D1C1A"/>
<path d="M131.25 117.937C131.25 117.879 131.182 117.821 131.114 117.821H130.3C130.232 117.821 130.164 117.879 130.164 117.937V120.59C130.164 120.648 130.232 120.706 130.3 120.706H131.114C131.182 120.706 131.25 120.648 131.25 120.59V117.937ZM130.673 120.302V118.225H130.775V120.273H130.673V120.302Z" fill="#1D1C1A"/>
<path d="M133.557 117.821C133.489 117.821 133.422 117.879 133.422 117.937V120.59C133.422 120.648 133.489 120.706 133.557 120.706H134.372C134.44 120.706 134.507 120.648 134.507 120.59V117.937C134.507 117.879 134.44 117.821 134.372 117.821H133.557ZM133.897 120.302V118.225H134.032V120.273H133.897V120.302Z" fill="#1D1C1A"/>
<path d="M134.643 117.821C134.575 117.821 134.508 117.879 134.508 117.937V120.59C134.508 120.648 134.575 120.706 134.643 120.706H135.458C135.526 120.706 135.594 120.648 135.594 120.59V117.937C135.594 117.879 135.526 117.821 135.458 117.821H134.643ZM135.017 120.302V118.225H135.118V120.273H135.017V120.302Z" fill="#1D1C1A"/>
<path d="M64.4032 118.903C64.3422 118.903 64.2811 118.962 64.2811 119.02V123.113C64.2811 123.171 64.3422 123.23 64.4032 123.23H66.6929C66.754 123.23 66.8151 123.171 66.8151 123.113V119.02C66.8151 118.962 66.754 118.903 66.6929 118.903H64.4032ZM64.7085 122.791V119.313H66.3571V122.791H64.7085Z" fill="#1D1C1A"/>
<path d="M65.1043 119.623C65.055 119.623 65.0056 119.682 65.0056 119.741V122.75C65.0056 122.809 65.055 122.868 65.1043 122.868H65.9929C66.0422 122.868 66.0916 122.809 66.0916 122.75V119.741C66.0916 119.682 66.0422 119.623 65.9929 119.623H65.1043ZM65.3511 122.425V120.036H65.746V122.425H65.3511Z" fill="#1D1C1A"/>
<path d="M67.2997 118.903C67.2387 118.903 67.1776 118.962 67.1776 119.02V123.113C67.1776 123.171 67.2387 123.23 67.2997 123.23H69.5894C69.6505 123.23 69.7115 123.171 69.7115 123.113V119.02C69.7115 118.962 69.6505 118.903 69.5894 118.903H67.2997ZM67.605 122.791V119.313H69.2536V122.791H67.605Z" fill="#1D1C1A"/>
<path d="M68.0008 119.623C67.9515 119.623 67.9021 119.682 67.9021 119.741V122.75C67.9021 122.809 67.9515 122.868 68.0008 122.868H68.8893C68.9387 122.868 68.9881 122.809 68.9881 122.75V119.741C68.9881 119.682 68.9387 119.623 68.8893 119.623H68.0008ZM68.2476 122.425V120.036H68.6425V122.425H68.2476Z" fill="#1D1C1A"/>
<path d="M72.4845 118.903H70.1949C70.1338 118.903 70.0728 118.962 70.0728 119.02V123.113C70.0728 123.171 70.1338 123.23 70.1949 123.23H72.4845C72.5456 123.23 72.6067 123.171 72.6067 123.113V119.02C72.5761 118.962 72.5456 118.903 72.4845 118.903ZM70.5002 122.791V119.313H72.1487V122.791H70.5002Z" fill="#1D1C1A"/>
<path d="M70.8956 119.623C70.8462 119.623 70.7969 119.682 70.7969 119.741V122.75C70.7969 122.809 70.8462 122.868 70.8956 122.868H71.7841C71.8335 122.868 71.8828 122.809 71.8828 122.75V119.741C71.8828 119.682 71.8335 119.623 71.7841 119.623H70.8956ZM71.1671 122.425V120.036H71.562V122.425H71.1671Z" fill="#1D1C1A"/>
<path d="M64.4032 123.229C64.3422 123.229 64.2811 123.288 64.2811 123.346V127.439C64.2811 127.497 64.3422 127.556 64.4032 127.556H66.6929C66.754 127.556 66.8151 127.497 66.8151 127.439V123.346C66.8151 123.288 66.754 123.229 66.6929 123.229H64.4032ZM64.7085 127.117V123.639H66.3571V127.117H64.7085Z" fill="#1D1C1A"/>
<path d="M65.1043 123.95C65.055 123.95 65.0056 124.009 65.0056 124.068V127.077C65.0056 127.136 65.055 127.195 65.1043 127.195H65.9929C66.0422 127.195 66.0916 127.136 66.0916 127.077V124.068C66.0916 124.009 66.0422 123.95 65.9929 123.95H65.1043ZM65.3511 126.752V124.363H65.746V126.752H65.3511Z" fill="#1D1C1A"/>
<path d="M67.2997 123.229C67.2387 123.229 67.1776 123.288 67.1776 123.346V127.439C67.1776 127.497 67.2387 127.556 67.2997 127.556H69.5894C69.6505 127.556 69.7115 127.497 69.7115 127.439V123.346C69.7115 123.288 69.6505 123.229 69.5894 123.229H67.2997ZM67.605 127.117V123.639H69.2536V127.117H67.605Z" fill="#1D1C1A"/>
<path d="M68.0008 123.95C67.9515 123.95 67.9021 124.009 67.9021 124.068V127.077C67.9021 127.136 67.9515 127.195 68.0008 127.195H68.8893C68.9387 127.195 68.9881 127.136 68.9881 127.077V124.068C68.9881 124.009 68.9387 123.95 68.8893 123.95H68.0008ZM68.2476 126.752V124.363H68.6425V126.752H68.2476Z" fill="#1D1C1A"/>
<path d="M70.1949 123.229C70.1338 123.229 70.0728 123.288 70.0728 123.346V127.439C70.0728 127.497 70.1338 127.556 70.1949 127.556H72.4845C72.5456 127.556 72.6067 127.497 72.6067 127.439V123.346C72.6067 123.288 72.5456 123.229 72.4845 123.229H70.1949ZM70.5002 127.117V123.639H72.1487V127.117H70.5002Z" fill="#1D1C1A"/>
<path d="M70.8956 123.95C70.8462 123.95 70.7969 124.009 70.7969 124.068V127.077C70.7969 127.136 70.8462 127.195 70.8956 127.195H71.7841C71.8335 127.195 71.8828 127.136 71.8828 127.077V124.068C71.8828 124.009 71.8335 123.95 71.7841 123.95H70.8956ZM71.1671 126.752V124.363H71.562V126.752H71.1671Z" fill="#1D1C1A"/>
<path d="M67.2969 113.855H69.5923C69.6519 113.855 69.7115 113.794 69.7115 113.734V110.732C69.7115 110.671 69.6519 110.61 69.5923 110.61H67.2969C67.2372 110.61 67.1776 110.671 67.1776 110.732V110.792V113.643V113.734C67.1776 113.825 67.2372 113.855 67.2969 113.855ZM69.2346 111.126V113.37H67.6248V111.126H69.2346Z" fill="#1D1C1A"/>
<path d="M57.5007 103.067C57.4524 103.067 57.4042 103.122 57.4042 103.177V105.454C57.4042 105.509 57.4524 105.564 57.5007 105.564H58.7556C58.8038 105.564 58.8521 105.509 58.8521 105.454V103.15C58.8521 103.095 58.8038 103.04 58.7556 103.04H57.5007V103.067ZM57.742 105.18V103.452H58.5143V105.18H57.742Z" fill="#1D1C1A"/>
<path d="M57.1896 101.236H58.7325C58.7919 101.236 58.8512 101.181 58.8512 101.126V98.1813C58.8512 98.1538 58.8512 98.1538 58.8215 98.1262L58.7919 98.0987C58.7919 98.0987 58.4358 97.6309 57.9314 97.6309C57.5753 97.6309 57.249 97.9611 57.1006 98.0987L57.0709 98.1262C57.0413 98.1538 57.0413 98.1538 57.0413 98.1813V101.126C57.0709 101.209 57.1303 101.236 57.1896 101.236ZM57.4863 98.3189C57.6347 98.1813 57.8424 98.0437 57.9611 98.0437C58.1688 98.0437 58.3468 98.2363 58.4358 98.3189V100.878H57.4863V98.3189Z" fill="#1D1C1A"/>
<path d="M79.4552 102.77C79.425 102.685 79.1837 102.318 78.5804 102.318C77.9469 102.318 77.7056 102.713 77.6754 102.826V105.45C77.6754 105.478 77.6754 105.507 77.7056 105.535C77.7357 105.563 77.7659 105.563 77.7961 105.563H79.3647C79.425 105.563 79.4853 105.507 79.4853 105.45V102.826V102.798C79.4552 102.77 79.4552 102.77 79.4552 102.77ZM78.5804 102.685C78.882 102.685 79.0027 102.826 79.063 102.883V105.14H78.0977V102.883C78.1279 102.826 78.2787 102.685 78.5804 102.685Z" fill="#1D1C1A"/>
<path d="M61.4586 115.297H62.7348C62.7839 115.297 62.833 115.241 62.833 115.184V110.789V110.76V110.732C62.8084 110.647 62.6121 110.25 62.1213 110.25C61.6059 110.25 61.4096 110.647 61.385 110.76V115.156C61.385 115.184 61.385 115.212 61.4095 115.241C61.4095 115.297 61.4341 115.297 61.4586 115.297ZM62.0967 110.675C62.3421 110.675 62.4403 110.817 62.4894 110.874V114.9H61.704V110.874C61.7531 110.817 61.8513 110.675 62.0967 110.675Z" fill="#1D1C1A"/>
<path d="M83.4062 100.959C83.3761 100.854 83.1046 100.516 82.5314 100.516C81.8376 100.516 81.6566 100.959 81.6566 100.959V100.985V102.575C81.6566 102.601 81.6566 102.627 81.6868 102.653C81.7169 102.679 81.7471 102.679 81.7773 102.679H83.3459C83.4062 102.679 83.4666 102.627 83.4666 102.575V100.985L83.4062 100.959ZM82.5314 100.881C82.8331 100.881 82.9537 101.011 83.0141 101.063V102.314H82.0488V101.063C82.1091 101.011 82.2298 100.881 82.5314 100.881Z" fill="#1D1C1A"/>
<path d="M74.7189 100.959C74.6887 100.854 74.4172 100.516 73.844 100.516C73.1502 100.516 72.9692 100.959 72.9692 100.959V100.985V102.575C72.9692 102.601 72.9692 102.627 72.9994 102.653C73.0296 102.679 73.0597 102.679 73.0899 102.679H74.6585C74.7188 102.679 74.7792 102.627 74.7792 102.575V100.985L74.7189 100.959ZM73.844 100.881C74.1457 100.881 74.2664 101.011 74.3267 101.063V102.314H73.3614V101.063C73.3916 101.011 73.5424 100.881 73.844 100.881Z" fill="#1D1C1A"/>
<path d="M69.6866 100.31C69.6616 100.253 69.387 99.7949 68.9875 99.7949C68.663 99.7949 68.3384 100.224 68.3135 100.253L68.2885 100.281C68.2885 100.31 68.2635 100.339 68.2635 100.339V103.286C68.2635 103.343 68.3135 103.4 68.3634 103.4H69.6117C69.6616 103.4 69.7115 103.343 69.7115 103.286V100.367C69.6866 100.339 69.6866 100.31 69.6866 100.31ZM68.6131 100.453C68.7379 100.31 68.8877 100.167 68.9875 100.167C69.1373 100.167 69.2871 100.339 69.362 100.424V102.971H68.6131V100.453Z" fill="#1D1C1A"/>
<path d="M78.3002 92.9443H77.4117C77.3623 92.9443 77.313 92.9984 77.313 93.0525V94.9993C77.313 95.0534 77.3623 95.1075 77.4117 95.1075H78.3002C78.3496 95.1075 78.399 95.0534 78.399 94.9993V93.0525C78.3743 92.9984 78.3496 92.9443 78.3002 92.9443ZM77.6585 94.7289V93.3499H78.0287V94.7289H77.6585Z" fill="#1D1C1A"/>
</svg>
