<svg width="32" height="32" viewBox="0 0 32 32" fill="none" xmlns="http://www.w3.org/2000/svg">
<path d="M29.9627 0C29.1433 0 28.4973 0.261333 27.9793 0.592667C27.8907 0.286 27.718 0 27.3687 0C26.58 0 27.0607 0.530667 27.526 0.924667C27.416 1.016 27.3127 1.10533 27.2173 1.19467C27.1213 0.918667 26.9513 0.677333 26.6287 0.677333C25.8347 0.677333 26.328 1.21133 26.7967 1.60333C26.7173 1.68333 26.634 1.76667 26.5473 1.85333C26.4513 1.58133 26.2813 1.344 25.962 1.344C25.168 1.344 25.6613 1.878 26.13 2.27C26.0573 2.34333 25.9827 2.41733 25.9087 2.49067C25.8113 2.23067 25.6407 2.01067 25.3333 2.01067C24.5513 2.01067 25.0173 2.528 25.48 2.91867C25.3987 2.99933 25.3193 3.078 25.2427 3.15467C25.144 2.896 24.974 2.67733 24.6667 2.67733C23.8853 2.67733 24.3493 3.19333 24.8113 3.58333C24.7247 3.66933 24.646 3.748 24.5747 3.81933C24.476 3.56133 24.306 3.344 24 3.344C23.2207 3.344 23.6807 3.858 24.142 4.248L24 4.38867V4.66667C24 5.512 23.6833 5.99667 23.57 6.14333L12.5893 17.1333C12.3173 16.8973 12 16.5153 12 16C12 15.5107 12.5293 14.8993 12.88 14.494C13.264 14.05 13.596 13.6667 13.4213 13.1833C13.3753 13.0553 13.22 12.7493 12.7767 12.6753C9.688 12.1593 8.796 14.4027 8.14533 16.0393C7.80067 16.9073 7.476 17.726 6.93333 18.1333C6.098 18.76 5.092 19.1873 4.12 19.6C2.09467 20.4613 0 21.3513 0 24C0 27.632 4.504 32 7.33333 32C10.5733 32 11.4367 29.8467 12.1307 28.116C12.6387 26.8487 13.0773 25.754 14.248 25.286C17.274 24.076 17.814 22.3653 17.656 21.546C17.5547 21.0193 17.1567 20.6667 16.6667 20.6667C16.1787 20.6667 15.8753 20.8807 15.654 21.0373C15.43 21.196 15.236 21.3333 14.6667 21.3333C14.43 21.3333 14.122 21.2967 13.9953 21.1247C13.8547 20.932 13.8853 20.572 13.9353 20.3407L25.788 8.47867L25.8047 8.47133C26.2227 8.05333 26.5867 8.03 27.784 8.01333L28.0107 8.01C28.8053 7.99733 29.0133 7.11867 29.276 6.006C29.4073 5.448 29.7173 4.13867 30 4.01067C31.1027 4.01067 32 3.11533 32 2.016C32 0.904 31.1027 0 29.9627 0ZM14.6667 22.6667C15.4327 22.6667 15.882 22.4727 16.1867 22.286C15.92 22.7473 15.26 23.4447 13.752 24.048C12.052 24.7287 11.436 26.2647 10.8927 27.62C10.2107 29.322 9.67133 30.6667 7.33333 30.6667C5.35 30.6667 1.33333 27 1.33333 24C1.33333 22.316 2.52867 21.7253 4.64133 20.8273C5.68667 20.3833 6.76733 19.924 7.73333 19.2C8.576 18.568 8.98667 17.5333 9.38467 16.532C9.97533 15.0453 10.42 14.09 11.5927 13.95C11.1527 14.4847 10.6667 15.1927 10.6667 16C10.6667 16.968 11.1807 17.6553 11.644 18.0793L11.0573 18.6667L12.6027 20.2113C12.53 20.65 12.5067 21.338 12.9127 21.9013C13.164 22.2507 13.6727 22.6667 14.6667 22.6667ZM13.3333 19.0573L12.9427 18.6667L24 7.59867L24.3907 7.98933L13.3333 19.0573ZM29.9947 2.67733C28.69 2.688 28.2953 4.358 27.978 5.7C27.9053 6.00933 27.8033 6.44133 27.716 6.68133C26.7553 6.69533 26.044 6.712 25.3933 7.10733L24.8687 6.58333C25.0707 6.21867 25.28 5.67667 25.3247 4.954C25.79 4.492 27.0147 3.27467 27.83 2.45667C28.328 1.956 28.9493 1.33333 29.9993 1.33333C30 1.33333 30 1.33333 30 1.33333C30.3613 1.33333 30.6667 1.646 30.6667 2.01533C30.6667 2.38 30.3673 2.67733 29.9947 2.67733ZM9.80467 20.1953L11.8047 22.1953L10.862 23.138L8.862 21.138L9.80467 20.1953ZM7.80467 22.1953L9.80467 24.1953L8.862 25.138L6.862 23.138L7.80467 22.1953ZM7.80467 26.862L6.862 27.8047L4.19533 25.138L5.138 24.1953L7.80467 26.862ZM9.33333 27.3333C9.33333 27.702 9.03467 28 8.66667 28C8.29867 28 8 27.702 8 27.3333C8 26.9647 8.29867 26.6667 8.66667 26.6667C9.03467 26.6667 9.33333 26.9647 9.33333 27.3333ZM11.3333 25.3333C11.3333 25.702 11.0347 26 10.6667 26C10.2987 26 10 25.702 10 25.3333C10 24.9647 10.2987 24.6667 10.6667 24.6667C11.0347 24.6667 11.3333 24.9647 11.3333 25.3333ZM8.66667 29.3333C8.66667 29.702 8.368 30 8 30C7.632 30 7.33333 29.702 7.33333 29.3333C7.33333 28.9647 7.632 28.6667 8 28.6667C8.368 28.6667 8.66667 28.9647 8.66667 29.3333Z" fill="black"/>
</svg>
