<svg width="32" height="32" viewBox="0 0 32 32" fill="none" xmlns="http://www.w3.org/2000/svg">
<path d="M28.8142 28.7024H2.7713C1.09562 28.7024 0 27.4494 0 25.8504V11.4387C0 9.77977 1.152 8.37837 2.7713 8.37837H10.4691L11.0507 5.61317C11.3935 4.23818 12.6065 3.29749 14.0069 3.29749H17.8555C19.2559 3.29749 20.4693 4.23818 20.8056 5.58574L21.3928 8.37837H28.8142C30.4234 8.37837 32 9.77977 32 11.4387V25.8504C32 27.4763 30.5072 28.7024 28.8142 28.7024ZM2.7713 9.90269C1.99111 9.90269 1.52381 10.6204 1.52381 11.4387V25.8504C1.52381 26.6199 1.92254 27.1781 2.7713 27.1781H28.8142C29.6518 27.1781 30.4762 26.6199 30.4762 25.8504V11.4387C30.4762 10.6204 29.5843 9.90269 28.8142 9.90269H20.7741C20.4135 9.90269 20.1026 9.65025 20.029 9.29774L19.3209 5.92707C19.1609 5.28809 18.5554 4.8218 17.8555 4.8218H14.0069C13.3069 4.8218 12.702 5.28809 12.5354 5.9545L11.8334 9.29774C11.7592 9.65025 11.4484 9.90269 11.0877 9.90269H2.7713Z" fill="black"/>
<path d="M15.6251 23.3554C12.8259 23.3554 10.5488 21.0773 10.5488 18.278C10.5488 15.4778 12.8259 13.2002 15.6251 13.2002C18.4234 13.2002 20.701 15.4778 20.701 18.278C20.701 21.0773 18.4234 23.3554 15.6251 23.3554ZM15.6251 14.7245C13.666 14.7245 12.0726 16.3184 12.0726 18.278C12.0726 20.2371 13.666 21.8311 15.6251 21.8311C17.5837 21.8311 19.1771 20.2371 19.1771 18.278C19.1771 16.3184 17.5837 14.7245 15.6251 14.7245Z" fill="black"/>
<path d="M15.6251 26.0774C11.3254 26.0774 7.82727 22.5782 7.82727 18.278C7.82727 13.9768 11.3254 10.4781 15.6251 10.4781C19.9243 10.4781 23.4219 13.9768 23.4219 18.278C23.4219 22.5782 19.9243 26.0774 15.6251 26.0774ZM15.6251 12.002C12.1656 12.002 9.35108 14.8175 9.35108 18.278C9.35108 21.7381 12.1656 24.5531 15.6251 24.5531C19.0842 24.5531 21.8981 21.7381 21.8981 18.278C21.8981 14.8175 19.0842 12.002 15.6251 12.002Z" fill="black"/>
<path d="M8.92598 6.85401H4.86249C4.44192 6.85401 4.10059 6.51268 4.10059 6.09211C4.10059 5.67153 4.44192 5.3302 4.86249 5.3302H8.92598C9.34655 5.3302 9.68789 5.67153 9.68789 6.09211C9.68789 6.51268 9.34655 6.85401 8.92598 6.85401Z" fill="black"/>
<path d="M25.1089 5.83813H25.4248C26.6332 5.83813 27.4286 6.79356 27.4286 8.00245V8.88677H23.3651V8.00245C23.3651 6.79356 23.9005 5.83813 25.1089 5.83813Z" fill="black"/>
</svg>
