<svg width="88" height="88" viewBox="0 0 88 88" fill="none" xmlns="http://www.w3.org/2000/svg">
<g clip-path="url(#clip0_19_561)">
<path d="M79.2 0H8.8C3.9399 0 0 3.9399 0 8.8V79.2C0 84.0601 3.9399 88 8.8 88H79.2C84.0601 88 88 84.0601 88 79.2V8.8C88 3.9399 84.0601 0 79.2 0Z" fill="#777BB3"/>
<path d="M24.4529 47.9412C26.265 47.9412 27.6177 47.6223 28.4738 46.9938C29.3205 46.3716 29.9054 45.2938 30.212 43.7904C30.4978 42.3852 30.3889 41.4039 29.8885 40.8744C29.3767 40.3336 28.2703 40.0592 26.6003 40.0592H23.7044L22.0989 47.9412H24.4529ZM14.981 57.6502C14.8466 57.6502 14.7189 57.593 14.6335 57.4938C14.5479 57.3949 14.5132 57.2644 14.5389 57.1384L18.7936 36.2511C18.8348 36.0492 19.0203 35.9033 19.2359 35.9033H28.406C31.288 35.9033 33.4331 36.6499 34.7815 38.1227C36.137 39.6032 36.5555 41.6728 36.0254 44.2737C35.8098 45.3332 35.4388 46.3174 34.923 47.1985C34.4064 48.0804 33.7237 48.8967 32.8935 49.6246C31.8998 50.512 30.7752 51.1555 29.5539 51.5341C28.3518 51.9077 26.8081 52.0971 24.9656 52.0971H21.2525L20.1921 57.3023C20.1509 57.5043 19.9656 57.6502 19.75 57.6502H14.981Z" fill="black"/>
<path d="M24.0758 40.489H26.6003C28.616 40.489 29.3163 40.911 29.5541 41.1625C29.9489 41.5802 30.0233 42.4605 29.7697 43.7087C29.4846 45.106 28.9562 46.0965 28.1989 46.6528C27.4236 47.2224 26.1633 47.511 24.4529 47.511H22.6454L24.0758 40.489ZM28.4061 35.4731H19.2359C18.8046 35.4731 18.4337 35.765 18.3514 36.1689L14.0966 57.0562C14.0452 57.3082 14.1146 57.5689 14.2857 57.7671C14.4569 57.9654 14.7119 58.08 14.9811 58.08H19.7499C20.1814 58.08 20.5522 57.7882 20.6344 57.3843L21.6239 52.5268H24.9656C26.8555 52.5268 28.4464 52.3303 29.6937 51.9425C30.9765 51.5449 32.1568 50.8707 33.2014 49.9386C34.0653 49.1802 34.7769 48.3289 35.3162 47.4081C35.8556 46.4871 36.243 45.4601 36.4679 44.3553C37.0258 41.6177 36.5726 39.4254 35.1208 37.8398C33.6831 36.2694 31.4238 35.4731 28.4061 35.4731ZM21.5523 48.371H24.4529C26.3756 48.371 27.8077 48.0253 28.7487 47.3341C29.6898 46.6428 30.3245 45.4891 30.6545 43.8724C30.97 42.3201 30.8262 41.2245 30.2231 40.5865C29.6194 39.9483 28.4119 39.629 26.6003 39.629H23.3329L21.5523 48.371ZM28.4061 36.3331C31.1647 36.3331 33.1772 37.0237 34.4422 38.4055C35.7071 39.7871 36.0879 41.7155 35.5832 44.1915C35.3755 45.2114 35.0242 46.1439 34.5296 46.9887C34.0344 47.834 33.3877 48.607 32.5887 49.308C31.6365 50.1582 30.5786 50.7642 29.4147 51.125C28.2507 51.4869 26.768 51.6669 24.9656 51.6669H20.881L19.7499 57.2202H14.9811L19.2359 36.3331H28.4061Z" fill="white"/>
<path d="M46.9596 52.097C46.825 52.097 46.6975 52.0396 46.612 51.9405C46.5263 51.8415 46.4916 51.7112 46.5173 51.585L48.3993 42.3433C48.5784 41.4643 48.5343 40.8335 48.2752 40.5671C48.1166 40.4041 47.6402 40.1308 46.2315 40.1308H42.8217L40.4553 51.7491C40.4142 51.9511 40.2287 52.097 40.0131 52.097H35.2818C35.1472 52.097 35.0198 52.0396 34.934 51.9405C34.8485 51.8415 34.8138 51.711 34.8395 51.585L39.0943 30.6979C39.1353 30.4958 39.3208 30.3501 39.5366 30.3501H44.2677C44.4023 30.3501 44.5299 30.4073 44.6155 30.5064C44.701 30.6055 44.7358 30.7357 44.7101 30.8619L43.6834 35.9032H47.3514C50.1459 35.9032 52.0407 36.3732 53.1444 37.3403C54.2694 38.3268 54.6203 39.9043 54.1877 42.0291L52.2083 51.7491C52.1671 51.9511 51.9818 52.097 51.7658 52.097H46.9596Z" fill="black"/>
<path d="M44.2679 29.9204H39.5366C39.1051 29.9204 38.7343 30.212 38.6519 30.6161L34.3973 51.5033C34.3459 51.7555 34.4152 52.0162 34.5865 52.2143C34.7577 52.4125 35.0127 52.5271 35.2818 52.5271H40.0131C40.4445 52.5271 40.8155 52.2354 40.8977 51.8314L43.1932 40.561H46.2315C47.6378 40.561 47.9329 40.8475 47.9447 40.8599C48.0301 40.9475 48.1422 41.353 47.957 42.2615L46.0749 51.5033C46.0237 51.7555 46.093 52.0162 46.2642 52.2143C46.4355 52.4125 46.6905 52.5271 46.9596 52.5271H51.7658C52.1972 52.5271 52.5682 52.2354 52.6506 51.8314L54.6301 42.1116C55.0945 39.8299 54.6971 38.1185 53.4493 37.0241C52.2585 35.9806 50.2638 35.4736 47.3514 35.4736H44.2299L45.1525 30.9442C45.2037 30.6922 45.1345 30.4313 44.9633 30.2333C44.792 30.0352 44.537 29.9204 44.2679 29.9204ZM44.2679 30.7802L43.1367 36.3333H47.3514C50.0035 36.3333 51.8327 36.7751 52.8394 37.6572C53.8463 38.54 54.1478 39.9704 53.7455 41.9475L51.7658 51.6673H46.9596L48.8418 42.4257C49.056 41.3743 48.9771 40.6573 48.6052 40.2748C48.2333 39.8926 47.4419 39.7011 46.2315 39.7011H42.4501L40.0131 51.6673H35.2818L39.5366 30.7802H44.2679Z" fill="white"/>
<path d="M61.6739 47.9412C63.486 47.9412 64.8388 47.6223 65.6948 46.9938C66.5416 46.3718 67.1264 45.294 67.4332 43.7904C67.719 42.3852 67.6101 41.4039 67.1095 40.8744C66.5977 40.3336 65.4914 40.0592 63.8211 40.0592H60.9252L59.3198 47.9412H61.6739ZM52.2021 57.6502C52.0677 57.6502 51.9401 57.593 51.8545 57.4938C51.769 57.3949 51.7342 57.2644 51.7599 57.1384L56.0147 36.2511C56.0558 36.0492 56.2412 35.9033 56.4571 35.9033H65.6271C68.5091 35.9033 70.6542 36.6499 72.0025 38.1227C73.3581 39.6032 73.7766 41.6726 73.2467 44.2737C73.0307 45.3332 72.6599 46.3174 72.1438 47.1985C71.6274 48.0804 70.9447 48.8967 70.1146 49.6246C69.1209 50.512 67.9962 51.1555 66.7748 51.5341C65.5729 51.9077 64.0292 52.0971 62.1866 52.0971H58.4734L57.4133 57.3023C57.3722 57.5043 57.1868 57.6502 56.9709 57.6502H52.2021Z" fill="black"/>
<path d="M61.2968 40.489H63.8213C65.837 40.489 66.5372 40.911 66.7751 41.1625C67.1701 41.5802 67.2445 42.4605 66.9907 43.7085C66.7056 45.106 66.1771 46.0965 65.4199 46.6528C64.6446 47.2224 63.3841 47.511 61.6739 47.511H59.8666L61.2968 40.489ZM65.6271 35.4731H56.4569C56.0256 35.4731 55.6547 35.765 55.5725 36.1689L51.3177 57.0562C51.2664 57.3082 51.3357 57.5689 51.5068 57.7671C51.678 57.9654 51.933 58.08 52.2021 58.08H56.9709C57.4022 58.08 57.7732 57.7882 57.8556 57.3843L58.8449 52.5268H62.1866C64.0765 52.5268 65.6674 52.3303 66.9147 51.9425C68.1975 51.5449 69.378 50.8705 70.4227 49.9382C71.2865 49.18 71.9979 48.3289 72.5372 47.4081C73.0764 46.4871 73.464 45.4601 73.6889 44.3553C74.2468 41.6175 73.7935 39.4252 72.3416 37.8396C70.9041 36.2694 68.6449 35.4731 65.6271 35.4731ZM58.7733 48.371H61.6739C63.5966 48.371 65.0287 48.0253 65.9696 47.3341C66.911 46.6428 67.5455 45.4891 67.8753 43.8724C68.191 42.3201 68.0472 41.2245 67.4441 40.5865C66.8404 39.9483 65.6329 39.629 63.8213 39.629H60.5539L58.7733 48.371ZM65.6271 36.3331C68.3857 36.3331 70.3983 37.0237 71.6632 38.4055C72.9281 39.7871 73.3088 41.7155 72.8042 44.1915C72.5965 45.2114 72.2452 46.1439 71.7506 46.9887C71.2554 47.834 70.6087 48.607 69.8097 49.308C68.8575 50.1582 67.7996 50.7642 66.6355 51.125C65.4717 51.4869 63.989 51.6669 62.1866 51.6669H58.1018L56.9709 57.2202H52.2021L56.4569 36.3331H65.6271Z" fill="white"/>
</g>
<defs>
<clipPath id="clip0_19_561">
<rect width="88" height="88" fill="white"/>
</clipPath>
</defs>
</svg>
