<svg width="32" height="32" viewBox="0 0 32 32" fill="none" xmlns="http://www.w3.org/2000/svg">
<g clip-path="url(#clip0_407_78)">
<path d="M10.0651 1.41736C10.0651 1.41736 1.47549 11.4504 12.0166 22.6268C12.0166 22.6268 2.76401 19.557 1.75736 12.3929C1.75736 12.3929 0.268951 5.08975 10.0651 1.41736V1.41736Z" fill="#6BB94F" stroke="#6BB94E" stroke-miterlimit="10"/>
<path d="M9.19937 16.0653C9.19937 16.0653 10.4059 1.41736 25.835 3.28368C25.835 3.28368 19.1365 -2.19478 12.9614 1.01569C12.9412 1.01569 4.17043 5.77115 9.19937 16.0653V16.0653Z" fill="#EE7541" stroke="#ED7540" stroke-miterlimit="10"/>
<path d="M12.8204 9.58413C12.8204 9.58413 16.5824 3.30377 26.0967 4.62783C26.0967 4.62783 32.9966 6.69499 31.8692 18.6733C31.849 18.6733 28.0266 4.16592 12.8204 9.58413Z" fill="#E9555F" stroke="#E9565F" stroke-miterlimit="10"/>
<path d="M20.5846 9.24268C20.5846 9.24268 32.3121 20.6802 20.5846 31.716C20.5846 31.716 27.7663 29.8095 30.4814 23.1877C30.4814 23.1877 33.2569 13.3368 20.5846 9.24268V9.24268Z" fill="#EA589F" stroke="#E9589F" stroke-miterlimit="10"/>
<path d="M24.3466 17.068C24.3466 17.068 19.1163 31.9168 5.03613 27.6017C5.03613 27.6017 9.23962 33.3198 16.7234 31.7145C16.7219 31.716 26.2362 30.9944 24.3466 17.068V17.068Z" fill="#32B7E9"/>
<path d="M0.510526 12.8549C0.510526 12.8549 3.7692 26.2992 19.4183 23.1892C19.4183 23.1892 13.886 29.9114 5.03614 26.5001C5.03614 26.4986 -1.904 22.9884 0.510526 12.8549V12.8549Z" fill="#118E9B"/>
</g>
<defs>
<clipPath id="clip0_407_78">
<rect width="32" height="32" fill="white"/>
</clipPath>
</defs>
</svg>
