<svg width="533" height="533" viewBox="0 0 533 533" fill="none" xmlns="http://www.w3.org/2000/svg">
<path d="M244.263 0.898096C213.461 5.21468 183.812 17.5003 160.916 34.9327C155.48 39.0833 150.703 42.4037 150.209 42.4037C148.397 42.4037 161.081 32.6084 172.281 25.4694C177.882 21.6509 182.494 18.3305 182.494 17.9984C182.494 17.0023 171.787 23.6432 161.081 31.2802C151.692 38.0871 39.1894 149.986 39.1894 152.643C39.1894 153.307 40.5071 152.975 41.9896 151.812C44.4603 149.986 44.2956 150.152 41.8249 153.307C38.5305 157.125 36.5539 158.287 38.5305 154.967C39.1894 153.805 39.0247 153.639 37.8716 154.303C34.0831 156.627 24.2001 173.561 25.3531 175.388C26.012 176.716 25.8472 176.882 24.6942 176.218C22.7176 175.056 11.8462 194.646 13.4934 196.473C13.9876 196.971 14.4817 196.639 14.4817 195.808C14.4817 194.812 15.6347 192.654 16.9525 190.828C19.0938 188.005 19.0938 188.171 17.4466 192.986C16.2936 195.974 14.4817 198.465 13.4934 198.465C12.3404 198.465 10.3638 201.453 8.8813 205.106C5.25751 214.403 5.58694 217.225 9.54017 209.256C11.3521 205.604 12.5051 204.11 11.8462 205.936C11.3521 207.762 10.0343 211.747 9.21073 214.901C8.22243 218.387 7.0694 219.882 6.41053 218.554C4.76335 216.063 -1.00177 241.465 0.151252 245.781C0.645406 247.939 0.974841 246.943 1.30428 243.291C1.46899 240.136 2.29258 235.654 2.95146 233.33C3.77504 231.005 3.77504 233.828 3.28089 239.97C2.62202 245.947 2.12787 257.901 2.12787 266.534C2.12787 275.167 2.62202 287.121 3.28089 293.098C3.77504 299.24 3.77504 302.063 2.95146 299.738C2.29258 297.414 1.46899 292.932 1.30428 289.777C0.974841 286.125 0.645406 285.129 0.151252 287.287C-1.00177 291.603 4.76335 317.005 6.41053 314.514C7.0694 313.186 8.22243 314.68 9.21073 318.167C10.0343 321.321 11.3521 325.306 11.8462 327.132C12.5051 328.958 11.3521 327.464 9.54017 323.812C5.58694 315.843 5.25751 318.665 8.8813 327.962C10.3638 331.615 12.3404 334.603 13.4934 334.603C14.4817 334.603 16.2936 337.094 17.4466 339.916C19.0938 344.897 19.0938 345.063 16.9525 342.24C15.6347 340.414 14.4817 338.256 14.4817 337.26C14.4817 336.429 13.9876 336.097 13.4934 336.595C11.8462 338.422 22.7176 358.012 24.6942 356.85C25.8472 356.186 26.012 356.352 25.3531 357.68C24.2001 359.507 34.0831 376.441 37.8716 378.765C39.0247 379.595 39.1894 379.097 38.3658 377.603C37.5422 376.275 38.5305 376.773 40.5071 378.433C44.6251 381.92 45.6134 384.41 41.6601 381.089C40.3424 379.927 39.1894 379.761 39.1894 380.425C39.1894 383.082 151.692 494.981 161.081 501.788C171.787 509.425 182.494 516.066 182.494 515.07C182.494 514.738 177.882 511.417 172.281 507.599C161.081 500.46 148.397 490.664 150.209 490.664C150.703 490.664 155.48 493.985 160.916 498.135C179.858 512.579 201.107 522.541 227.791 529.015C248.875 534.328 284.125 534.328 305.209 529.015C322.175 524.865 333.705 520.714 346.059 514.572C367.307 503.78 378.343 494.317 433.689 439.363L489.693 383.746L433.689 440.193C389.874 484.355 374.72 498.633 364.178 505.606C356.601 510.421 350.506 514.738 350.506 515.07C350.506 516.066 361.377 509.425 371.919 501.788C381.308 494.981 493.811 383.082 493.811 380.425C493.811 379.761 492.493 380.093 491.01 381.255C488.54 383.082 488.704 382.916 491.175 379.761C494.469 375.943 496.446 374.781 494.469 378.101C493.811 379.263 493.975 379.429 495.128 378.765C498.917 376.441 508.8 359.507 507.647 357.68C506.988 356.352 507.153 356.186 508.306 356.85C510.282 358.012 521.154 338.422 519.507 336.595C519.012 336.097 518.518 336.429 518.518 337.26C518.518 338.256 517.365 340.414 516.048 342.24C513.906 345.063 513.906 344.897 515.553 339.916C516.706 337.094 518.518 334.603 519.507 334.603C520.66 334.603 522.636 331.615 524.119 327.962C527.742 318.665 527.413 315.843 523.46 323.812C521.648 327.464 520.495 328.958 521.154 327.132C521.648 325.306 522.966 321.321 523.789 318.167C524.778 314.68 525.931 313.186 526.589 314.514C528.237 317.005 534.002 291.603 532.849 287.287C532.355 285.129 532.025 286.125 531.696 289.777C531.531 292.932 530.707 297.414 530.049 299.738C529.225 302.063 529.225 299.24 529.719 293.098C530.378 287.121 530.872 275.167 530.872 266.534C530.872 257.901 530.378 245.947 529.719 239.97C529.225 233.828 529.225 231.005 530.049 233.33C530.707 235.654 531.531 240.136 531.696 243.291C532.025 246.943 532.355 247.939 532.849 245.781C534.002 241.465 528.237 216.063 526.589 218.554C525.931 219.882 524.778 218.387 523.789 214.901C522.966 211.747 521.648 207.762 521.154 205.936C520.495 204.11 521.648 205.604 523.46 209.256C527.413 217.225 527.742 214.403 524.119 205.106C522.636 201.453 520.66 198.465 519.507 198.465C518.518 198.465 516.706 195.974 515.553 192.986C513.906 188.171 513.906 188.005 516.048 190.828C517.365 192.654 518.518 194.812 518.518 195.808C518.518 196.639 519.012 196.971 519.507 196.473C520.989 194.978 510.282 175.056 508.635 176.052C507.812 176.55 507.482 176.052 507.976 174.724C508.306 173.561 507.153 170.573 505.341 168.415C503.364 166.256 502.376 165.426 503.035 166.755C503.694 168.249 503.529 168.747 502.376 167.917C501.388 167.253 500.893 165.758 501.388 164.596C501.882 163.434 500.235 160.28 497.929 157.623C495.458 154.967 494.14 153.971 494.799 155.299C495.623 156.959 494.799 156.793 492.493 154.635C488.375 151.148 487.387 148.658 491.34 151.979C492.658 153.141 493.811 153.307 493.811 152.643C493.811 149.986 381.308 38.0871 371.919 31.2802C361.213 23.6432 350.506 17.0023 350.506 17.9984C350.506 18.3305 355.118 21.6509 360.883 25.4694C371.919 32.6084 384.603 42.4037 382.791 42.4037C382.297 42.4037 377.52 39.0833 372.084 34.9327C344.412 13.6818 309.985 1.56219 273.089 0.234007C262.711 -0.264061 249.699 0.0679842 244.263 0.898096ZM288.572 89.8861C300.102 92.8745 317.398 101.674 325.798 108.979L331.564 113.793L309.985 135.542L288.407 157.291L282.148 152.975C274.736 147.828 261.229 147.164 252.828 151.314C245.581 154.967 156.633 244.287 152.68 251.924C143.126 270.685 154.657 294.094 175.246 297.414C189.083 299.572 191.224 297.912 244.263 244.951C271.442 217.889 297.302 193.318 301.585 190.33C346.388 159.782 408.487 175.222 433.524 223.202C448.019 250.928 447.854 281.808 433.359 310.364C428.088 320.823 421.005 328.46 374.555 375.445C317.068 433.221 312.456 437.039 287.913 443.348C272.595 447.498 249.699 446.004 234.545 440.193C224.168 436.209 202.26 422.263 202.26 419.607C202.26 418.943 211.649 408.981 223.014 397.526L243.769 376.441L250.687 380.425C260.735 386.236 273.418 385.904 283.136 379.595C287.09 377.105 310.48 354.36 335.023 329.456C383.285 280.314 384.603 278.488 383.12 263.048C381.308 243.955 363.189 231.503 344.576 236.65C337.164 238.642 332.222 243.291 283.795 291.437C237.345 337.758 229.768 344.731 220.379 349.213C205.719 356.186 196.001 358.178 178.376 358.178C147.738 358.178 121.878 344.232 104.418 318.499C92.2285 300.403 89.593 290.939 89.593 266.534C89.593 243.457 91.8991 233.994 101.947 217.889C108.7 207.098 199.625 114.291 212.967 104.662C222.85 97.5232 235.368 91.7124 246.569 89.056C256.452 86.5657 277.701 87.0637 288.572 89.8861Z" fill="black"/>
</svg>
