<svg width="33" height="33" viewBox="0 0 33 33" fill="none" xmlns="http://www.w3.org/2000/svg">
<path d="M16.84 0.839966C8.00322 0.839966 0.839966 8.00322 0.839966 16.84C0.839966 25.6767 8.00322 32.84 16.84 32.84C25.6767 32.84 32.84 25.6767 32.84 16.84C32.84 8.00322 25.6767 0.839966 16.84 0.839966ZM25.4389 22.9117C24.7561 23.3387 21.9814 23.466 21.3096 22.9779C20.9412 22.7103 20.6043 22.3755 20.2843 22.0566C20.0604 21.8337 19.8063 21.7256 19.614 21.4836C19.4569 21.2857 19.3491 21.0521 19.1838 20.8566C18.9048 20.5287 18.4753 20.2497 18.1356 20.6504C17.624 21.2531 18.216 22.4368 17.5339 22.8871C17.3051 23.0382 17.0743 23.0819 16.7883 23.0604L16.155 23.0892C15.7831 23.0965 15.1939 23.0999 14.7706 23.0237C14.2985 22.9384 13.9086 22.6805 13.4816 22.4913C12.6712 22.1318 11.8992 21.642 11.3117 20.9637C9.71275 19.1162 7.56509 16.5755 6.73078 14.2528C6.5592 13.7755 6.10582 12.8303 6.53563 12.4209C7.12003 11.9963 9.98832 11.8767 10.4358 12.5332C10.6174 12.8001 10.7322 13.1904 10.8608 13.493C11.0209 13.8701 11.1076 14.2254 11.3578 14.5592C11.5793 14.8552 11.7426 15.153 11.9138 15.4774C12.1062 15.8417 12.2878 16.1911 12.5218 16.5263C12.6805 16.7543 13.1003 17.2081 13.3654 17.2417C14.0129 17.3245 13.9727 15.7512 13.9245 15.3672C13.8784 14.997 13.8667 14.6043 13.8788 14.2289C13.8892 13.9086 13.918 13.4573 13.7284 13.1959C13.4192 12.7696 12.7304 13.0885 12.6767 12.5155C12.7904 12.353 12.7665 12.2088 13.5259 11.9585C14.1242 11.762 14.5107 11.7682 14.9051 11.7998C15.7093 11.8642 16.562 11.6466 17.3384 11.9072C18.0802 12.1571 17.9654 13.2112 17.9405 13.8427C17.9069 14.7048 17.9429 15.5464 17.9405 16.4216C17.9394 16.8199 17.9235 17.2077 18.4095 17.1751C18.8649 17.145 18.9114 16.7616 19.1287 16.4455C19.431 16.0046 19.7086 15.5575 20.0164 15.1183C20.4313 14.5245 20.5568 13.8573 20.9474 13.249C21.0871 13.0316 21.2074 12.5686 21.4226 12.3966C21.5855 12.266 21.8951 12.3342 22.0923 12.3342H22.5613C22.92 12.3342 23.2861 12.3315 23.6549 12.3443C24.1859 12.3627 24.7807 12.2407 25.3072 12.3152C27.5793 12.6358 22.4514 17.493 22.7183 18.3602C22.9027 18.9592 24.0725 19.6285 24.4947 20.119C25.0552 20.7724 26.7807 22.0712 25.4389 22.9117Z" fill="#4C75A3"/>
</svg>
