<svg width="34" height="32" viewBox="0 0 34 32" fill="none" xmlns="http://www.w3.org/2000/svg">
<path d="M29.7998 30.9169H21.9229C21.726 30.9169 21.5291 31.0646 21.5291 31.3107C21.5291 31.5569 21.6767 31.7046 21.9229 31.7046H29.7998C29.9967 31.7046 30.1937 31.5569 30.1937 31.3107C30.1937 31.0646 29.9967 30.9169 29.7998 30.9169Z" fill="black"/>
<path d="M32.7537 30.9169H31.7691C31.5722 30.9169 31.3752 31.0646 31.3752 31.3107C31.3752 31.5569 31.5229 31.7046 31.7691 31.7046H32.7537C32.9506 31.7046 33.1476 31.5569 33.1476 31.3107C33.1476 31.0646 32.9506 30.9169 32.7537 30.9169Z" fill="black"/>
<path d="M16.0152 3.10154H22.4152C22.6121 3.10154 22.809 2.95384 22.809 2.70769C22.809 2.46154 22.6613 2.31384 22.4152 2.31384H16.0152C15.8183 2.31384 15.6213 2.46154 15.6213 2.70769C15.6213 2.95384 15.8183 3.10154 16.0152 3.10154Z" fill="black"/>
<path d="M24.3846 3.10154H24.8769C25.0738 3.10154 25.2707 2.95384 25.2707 2.70769C25.2707 2.46154 25.123 2.31384 24.8769 2.31384H24.3846C24.1876 2.31384 23.9907 2.46154 23.9907 2.70769C23.9907 2.95384 24.1876 3.10154 24.3846 3.10154Z" fill="black"/>
<path d="M1.24614 2.11691H1.88614V2.75691C1.88614 2.95384 2.03383 3.15076 2.27999 3.15076C2.52614 3.15076 2.67383 3.00307 2.67383 2.75691V2.11691H3.31383C3.51076 2.11691 3.70768 1.96922 3.70768 1.72307C3.70768 1.47691 3.4123 1.37845 3.21537 1.37845H2.6246V0.738451C2.6246 0.541528 2.47691 0.344604 2.23076 0.344604C1.9846 0.344604 1.88614 0.541528 1.88614 0.738451V1.37845H1.24614C1.04922 1.37845 0.852295 1.52614 0.852295 1.7723C0.852295 2.01845 1.04922 2.11691 1.24614 2.11691Z" fill="black"/>
<path d="M32.1631 29.2923V4.67693C32.1631 4.48 32.0154 4.28308 31.7692 4.28308H1.24614C1.04922 4.28308 0.852295 4.43077 0.852295 4.67693V20.4308C0.852295 20.6277 0.999987 20.8246 1.24614 20.8246C1.49229 20.8246 1.63999 20.6769 1.63999 20.4308V9.00923H31.4246V28.9477H1.63999V23.3846C1.63999 23.1877 1.49229 22.9908 1.24614 22.9908C0.999987 22.9908 0.852295 23.1385 0.852295 23.3846V29.2923C0.852295 29.4892 0.999987 29.6862 1.24614 29.6862H31.7692C31.9661 29.6862 32.1631 29.4892 32.1631 29.2923ZM1.63999 8.27077V5.07077H11.7323V8.27077H1.63999ZM12.4708 8.27077V5.07077H31.4246V8.27077H12.4708Z" fill="black"/>
<path d="M29.8 27.7169C29.9969 27.7169 30.1938 27.5693 30.1938 27.3231V10.5846C30.1938 10.3877 30.0461 10.1908 29.8 10.1908H3.21538C3.01846 10.1908 2.82153 10.3385 2.82153 10.5846V27.3231C2.82153 27.52 2.96923 27.7169 3.21538 27.7169H29.8ZM3.60923 10.9785H29.4554V26.9785H3.60923V10.9785Z" fill="black"/>
<path d="M4.19983 7.13842C4.47172 7.13842 4.69213 6.91801 4.69213 6.64612C4.69213 6.37422 4.47172 6.15381 4.19983 6.15381C3.92793 6.15381 3.70752 6.37422 3.70752 6.64612C3.70752 6.91801 3.92793 7.13842 4.19983 7.13842Z" fill="black"/>
<path d="M6.6615 7.13842C6.93339 7.13842 7.1538 6.91801 7.1538 6.64612C7.1538 6.37422 6.93339 6.15381 6.6615 6.15381C6.3896 6.15381 6.16919 6.37422 6.16919 6.64612C6.16919 6.91801 6.3896 7.13842 6.6615 7.13842Z" fill="black"/>
<path d="M9.12292 7.13842C9.39482 7.13842 9.61523 6.91801 9.61523 6.64612C9.61523 6.37422 9.39482 6.15381 9.12292 6.15381C8.85103 6.15381 8.63062 6.37422 8.63062 6.64612C8.63062 6.91801 8.85103 7.13842 9.12292 7.13842Z" fill="black"/>
<path d="M29.3076 6.30151H14.5384C14.3415 6.30151 14.1445 6.44921 14.1445 6.69536C14.1445 6.94151 14.2922 7.08921 14.5384 7.08921H29.3076C29.5045 7.08921 29.7015 6.94151 29.7015 6.69536C29.7015 6.44921 29.5045 6.30151 29.3076 6.30151Z" fill="black"/>
<path d="M27.3384 14.1785H21.4307C21.2338 14.1785 21.0369 14.3262 21.0369 14.5723C21.0369 14.8185 21.1846 14.9662 21.4307 14.9662H27.3384C27.5353 14.9662 27.7322 14.8185 27.7322 14.5723C27.7322 14.3262 27.5353 14.1785 27.3384 14.1785Z" fill="black"/>
<path d="M27.3384 17.1323H21.4307C21.2338 17.1323 21.0369 17.28 21.0369 17.5262C21.0369 17.7723 21.1846 17.92 21.4307 17.92H27.3384C27.5353 17.92 27.7322 17.7723 27.7322 17.5262C27.7322 17.28 27.5353 17.1323 27.3384 17.1323Z" fill="black"/>
<path d="M27.3384 20.0862H16.5076C16.3107 20.0862 16.1138 20.2339 16.1138 20.48C16.1138 20.7262 16.2615 20.8739 16.5076 20.8739H27.3384C27.5353 20.8739 27.7322 20.7262 27.7322 20.48C27.7322 20.2339 27.5353 20.0862 27.3384 20.0862Z" fill="black"/>
<path d="M27.3384 23.04H16.5076C16.3107 23.04 16.1138 23.1877 16.1138 23.4339C16.1138 23.68 16.2615 23.8277 16.5076 23.8277H27.3384C27.5353 23.8277 27.7322 23.68 27.7322 23.4339C27.7322 23.1877 27.5353 23.04 27.3384 23.04Z" fill="black"/>
<path d="M14.3908 13.44V13.3907C14.3908 13.3907 14.3908 13.3415 14.3415 13.3415L14.2923 13.2923H14.2431L14.1938 13.243C14.1938 13.243 14.1446 13.243 14.0954 13.243H14.0462H5.18462C4.98769 13.243 4.79077 13.3907 4.79077 13.6369V24.4677C4.79077 24.5169 4.79077 24.5169 4.79077 24.5661V24.6153C4.79077 24.6153 4.79077 24.6646 4.84 24.6646C4.88923 24.6153 4.93846 24.6153 4.93846 24.6646C4.93846 24.6646 4.98769 24.6646 4.98769 24.7138C4.98769 24.7138 5.03693 24.7138 5.03693 24.763C5.08616 24.763 5.13539 24.8123 5.18462 24.8123H14.0462C14.2431 24.8123 14.44 24.6646 14.44 24.4184V13.5877C14.3908 13.4892 14.3908 13.4892 14.3908 13.44ZM13.2585 13.9323L5.57846 23.3354V13.9323H13.2585ZM5.97231 24.0246L13.7015 14.6215V24.0246H5.97231Z" fill="black"/>
<path d="M1.24606 22.2523C1.29529 22.2523 1.34452 22.2523 1.39375 22.2031C1.44298 22.2031 1.49221 22.2031 1.49221 22.1539C1.54144 22.0554 1.59067 22.0062 1.59067 21.9077C1.59067 21.8585 1.59067 21.8092 1.54144 21.76C1.49221 21.7108 1.54144 21.6616 1.49221 21.6616C1.34452 21.5139 1.09836 21.5139 0.950671 21.6616C0.90144 21.7108 0.90144 21.76 0.852209 21.76C0.852209 21.8092 0.802979 21.8585 0.802979 21.9077C0.802979 22.0062 0.852209 22.1046 0.90144 22.1539C1.04913 22.2523 1.14759 22.2523 1.24606 22.2523Z" fill="black"/>
</svg>
